<svg data-v-2cb57da0="" version="1.0" xmlns="http://www.w3.org/2000/svg" xmlns:xlink="http://www.w3.org/1999/xlink" width="100%" height="100%" viewBox="0 0 340.000000 250.000000" preserveAspectRatio="xMidYMid meet" color-interpolation-filters="sRGB" style="margin: auto;"><rect data-v-2cb57da0="" x="0" y="0" width="100%" height="100%" fill="#140d0d" fill-opacity="0" class="background"></rect> <rect data-v-2cb57da0="" x="0" y="0" width="100%" height="100%" fill="url(#watermark)" fill-opacity="1" class="watermarklayer"></rect> <g data-v-2cb57da0="" fill="#f0c244" class="newinitialsvg-g newinitialsvg" transform="translate(87.17999267578125,95.2599983215332)"><g class="tp-name" transform="matrix(1,0,0,1,-9.239770646437035,0)" opacity="0.5380114676781482"><g transform="translate(0, 0)"><g data-gra="path-name" fill="#f0c244" transform="translate(0,3)"><g transform="scale(1)"><path d="M26.16 0L24.18-7.20L11.52-7.20L9.54 0L0.60 0L10.98-37.50L24.72-37.50L35.10 0L26.16 0ZM13.38-13.86L22.32-13.86L18.12-29.04L17.58-29.04L13.38-13.86Z" transform="translate(-0.6, 38.4)"></path></g></g></g><g transform="translate(38.5, 0)"><g data-gra="path-name" fill="#f0c244" transform="translate(0,3)"><g transform="scale(1)"><path d="M13.14-14.40L13.14 0L4.20 0L4.20-37.50L26.64-37.50L25.56-30.12L13.14-30.12L13.14-21.12L24.24-21.12L24.24-14.40L13.14-14.40Z" transform="translate(-4.2, 38.4)"></path></g></g></g><g transform="translate(64.94, 0)"><g data-gra="path-name" fill="#f0c244" transform="translate(0,3)"><g transform="scale(1)"><path d="M13.14-14.40L13.14 0L4.20 0L4.20-37.50L26.64-37.50L25.56-30.12L13.14-30.12L13.14-21.12L24.24-21.12L24.24-14.40L13.14-14.40Z" transform="translate(-4.2, 38.4)"></path></g></g></g><g transform="translate(91.38, 0)"><g data-gra="path-name" fill="#f0c244" transform="translate(0,3)"><g transform="scale(1)"><path d="M3.42-8.28Q9.12-6.60 15.42-6.60L15.42-6.60Q18.48-6.60 21.24-6.96L21.24-6.96L21.24-14.22L15.72-14.70Q10.62-15.12 7.83-16.26Q5.04-17.40 3.84-19.65Q2.64-21.90 2.64-25.86L2.64-25.86Q2.64-30.54 3.93-33.24Q5.22-35.94 8.04-37.17Q10.86-38.40 15.78-38.40L15.78-38.40Q22.44-38.40 28.92-36.96L28.92-36.96L27.78-29.82Q24.90-30.42 22.56-30.63Q20.22-30.84 17.40-30.84L17.40-30.84Q14.34-30.84 12.30-30.54L12.30-30.54L12.30-23.22L17.82-22.80Q22.68-22.38 25.53-21.12Q28.38-19.86 29.64-17.43Q30.90-15 30.90-11.04L30.90-11.04Q30.90-6.72 29.40-4.11Q27.90-1.50 24.66-0.30Q21.42 0.90 16.02 0.90L16.02 0.90Q8.40 0.90 2.16-0.90L2.16-0.90L3.42-8.28Z" transform="translate(-2.16, 38.4)"></path></g></g></g><g class="tp-graph" transform="translate(124.11999999999999, 0)" mask="url(#5896ade0-ed49-435a-bcba-0168b7860d7a)"><rect data-gra="graph-name" fill="#ec7210" x="0" y="3.9000015258789062" width="41.52" height="36.5"></rect> <g data-gra="path-name" transform="translate(-2.2888183437430598e-7,3)"><g transform="scale(1)" fill="#ec7210"><path d="M3.30 0L5.70-37.50L17.28-37.50L23.88-13.86L24.30-13.86L30.84-37.50L42.42-37.50L44.82 0L35.94 0L34.50-24L34.08-24L27.54 0L20.58 0L13.98-24L13.62-24L12.18 0L3.30 0Z" transform="translate(-3.3, 38.4)"></path></g></g></g></g> <g data-gra="path-slogan" fill-rule="" class="tp-slogan" fill="#f0c244" transform="matrix(1,0,0,1,-10.826904796664625,48.30000305175781)" opacity="0.20865476016676876"><rect x="0" height="1" y="3.5900001525878906" width="17.760005950927734"></rect> <rect height="1" y="3.5900001525878906" width="17.760005950927734" x="137.88000869750977"></rect> <g transform="translate(20.760005950927734,0)"><g transform="scale(1)"><path d="M1.10-1.72L0.50-1.02C0.85-0.66 1.26-0.38 1.73-0.17C2.20 0.04 2.71 0.14 3.26 0.14C3.68 0.14 4.05 0.09 4.38-0.03C4.71-0.15 4.99-0.31 5.22-0.51C5.45-0.71 5.63-0.95 5.75-1.22C5.88-1.50 5.94-1.79 5.94-2.10C5.94-2.39 5.90-2.64 5.81-2.86C5.73-3.08 5.62-3.27 5.47-3.44C5.33-3.60 5.16-3.75 4.96-3.87C4.76-3.99 4.54-4.10 4.32-4.20L3.20-4.68C3.04-4.74 2.89-4.81 2.74-4.89C2.58-4.97 2.44-5.05 2.32-5.15C2.19-5.25 2.09-5.37 2.01-5.50C1.93-5.63 1.90-5.80 1.90-5.99C1.90-6.35 2.03-6.63 2.30-6.83C2.57-7.04 2.92-7.14 3.36-7.14C3.73-7.14 4.06-7.07 4.35-6.94C4.64-6.81 4.91-6.63 5.15-6.40L5.69-7.04C5.41-7.33 5.07-7.57 4.67-7.75C4.27-7.93 3.83-8.02 3.36-8.02C3-8.02 2.67-7.96 2.37-7.86C2.07-7.76 1.81-7.61 1.59-7.42C1.37-7.23 1.20-7.01 1.07-6.76C0.95-6.50 0.89-6.22 0.89-5.93C0.89-5.64 0.94-5.39 1.03-5.17C1.13-4.95 1.25-4.76 1.40-4.60C1.56-4.44 1.73-4.30 1.92-4.19C2.11-4.08 2.30-3.98 2.48-3.90L3.61-3.41C3.80-3.32 3.97-3.24 4.13-3.16C4.29-3.08 4.43-2.99 4.54-2.89C4.66-2.79 4.75-2.67 4.82-2.53C4.89-2.39 4.92-2.22 4.92-2.02C4.92-1.63 4.78-1.32 4.49-1.09C4.20-0.85 3.80-0.73 3.28-0.73C2.87-0.73 2.47-0.82 2.09-1.00C1.71-1.18 1.38-1.42 1.10-1.72ZM10.39 0.14C10.89 0.14 11.34 0.05 11.75-0.14C12.17-0.34 12.52-0.61 12.82-0.97C13.12-1.32 13.35-1.75 13.52-2.26C13.68-2.77 13.76-3.34 13.76-3.97C13.76-4.60 13.68-5.16 13.52-5.66C13.35-6.16 13.12-6.58 12.82-6.93C12.52-7.28 12.17-7.55 11.75-7.73C11.34-7.92 10.89-8.02 10.39-8.02C9.90-8.02 9.44-7.92 9.03-7.74C8.62-7.56 8.26-7.29 7.97-6.94C7.67-6.59 7.44-6.17 7.28-5.67C7.11-5.17 7.03-4.60 7.03-3.97C7.03-3.34 7.11-2.77 7.28-2.26C7.44-1.75 7.67-1.32 7.97-0.97C8.26-0.61 8.62-0.34 9.03-0.14C9.44 0.05 9.90 0.14 10.39 0.14ZM10.39-0.73C10.04-0.73 9.72-0.81 9.44-0.96C9.15-1.11 8.91-1.33 8.71-1.61C8.50-1.90 8.34-2.24 8.23-2.63C8.12-3.03 8.06-3.48 8.06-3.97C8.06-4.46 8.12-4.90 8.23-5.29C8.34-5.68 8.50-6.02 8.71-6.29C8.91-6.56 9.15-6.77 9.44-6.92C9.72-7.07 10.04-7.14 10.39-7.14C10.74-7.14 11.06-7.07 11.35-6.92C11.63-6.77 11.87-6.56 12.08-6.29C12.28-6.02 12.44-5.68 12.55-5.29C12.66-4.90 12.72-4.46 12.72-3.97C12.72-3.48 12.66-3.03 12.55-2.63C12.44-2.24 12.28-1.90 12.08-1.61C11.87-1.33 11.63-1.11 11.35-0.96C11.06-0.81 10.74-0.73 10.39-0.73ZM17.88-7.87L17.88 0L22.32 0L22.32-0.85L18.88-0.85L18.88-7.87ZM26.30 0.14C26.80 0.14 27.25 0.05 27.67-0.14C28.08-0.34 28.43-0.61 28.73-0.97C29.03-1.32 29.27-1.75 29.43-2.26C29.59-2.77 29.68-3.34 29.68-3.97C29.68-4.60 29.59-5.16 29.43-5.66C29.27-6.16 29.03-6.58 28.73-6.93C28.43-7.28 28.08-7.55 27.67-7.73C27.25-7.92 26.80-8.02 26.30-8.02C25.81-8.02 25.35-7.92 24.94-7.74C24.53-7.56 24.18-7.29 23.88-6.94C23.58-6.59 23.35-6.17 23.19-5.67C23.03-5.17 22.94-4.60 22.94-3.97C22.94-3.34 23.03-2.77 23.19-2.26C23.35-1.75 23.58-1.32 23.88-0.97C24.18-0.61 24.53-0.34 24.94-0.14C25.35 0.05 25.81 0.14 26.30 0.14ZM26.30-0.73C25.95-0.73 25.63-0.81 25.35-0.96C25.07-1.11 24.82-1.33 24.62-1.61C24.41-1.90 24.26-2.24 24.14-2.63C24.03-3.03 23.98-3.48 23.98-3.97C23.98-4.46 24.03-4.90 24.14-5.29C24.26-5.68 24.41-6.02 24.62-6.29C24.82-6.56 25.07-6.77 25.35-6.92C25.63-7.07 25.95-7.14 26.30-7.14C26.66-7.14 26.97-7.07 27.26-6.92C27.54-6.77 27.79-6.56 27.99-6.29C28.19-6.02 28.35-5.68 28.46-5.29C28.58-4.90 28.63-4.46 28.63-3.97C28.63-3.48 28.58-3.03 28.46-2.63C28.35-2.24 28.19-1.90 27.99-1.61C27.79-1.33 27.54-1.11 27.26-0.96C26.97-0.81 26.66-0.73 26.30-0.73ZM31.37-7.87L31.37 0L32.32 0L32.32-4.12C32.32-4.53 32.30-4.95 32.27-5.36C32.25-5.77 32.22-6.18 32.18-6.58L32.23-6.58L33.08-4.96L35.94 0L36.97 0L36.97-7.87L36.02-7.87L36.02-3.80C36.02-3.39 36.04-2.97 36.07-2.54C36.09-2.11 36.12-1.70 36.14-1.30L36.10-1.30L35.24-2.93L32.40-7.87ZM38.68-3.94C38.68-3.30 38.76-2.72 38.94-2.21C39.12-1.71 39.36-1.28 39.67-0.93C39.98-0.58 40.36-0.32 40.79-0.13C41.22 0.05 41.70 0.14 42.22 0.14C42.74 0.14 43.22 0.06 43.64-0.11C44.06-0.29 44.40-0.50 44.65-0.77L44.65-4.08L42.07-4.08L42.07-3.25L43.74-3.25L43.74-1.20C43.58-1.06 43.37-0.94 43.12-0.86C42.87-0.77 42.60-0.73 42.32-0.73C41.90-0.73 41.53-0.81 41.20-0.96C40.88-1.11 40.61-1.33 40.39-1.61C40.17-1.89 40.00-2.23 39.88-2.62C39.77-3.02 39.71-3.46 39.71-3.96C39.71-4.45 39.77-4.89 39.89-5.28C40.02-5.67 40.19-6.01 40.42-6.28C40.64-6.56 40.91-6.77 41.23-6.92C41.55-7.07 41.91-7.14 42.31-7.14C42.71-7.14 43.04-7.07 43.30-6.93C43.56-6.79 43.79-6.62 43.99-6.41L44.56-7.04C44.32-7.28 44.03-7.51 43.66-7.71C43.30-7.91 42.84-8.02 42.30-8.02C41.77-8.02 41.29-7.92 40.85-7.73C40.41-7.55 40.03-7.28 39.70-6.92C39.38-6.57 39.13-6.14 38.95-5.64C38.77-5.14 38.68-4.57 38.68-3.94ZM48.96-7.87L48.96 0L49.96 0L49.96-3.12L51.37-3.12C51.80-3.12 52.20-3.17 52.55-3.27C52.91-3.37 53.22-3.52 53.47-3.72C53.73-3.92 53.93-4.17 54.07-4.48C54.21-4.78 54.28-5.14 54.28-5.56C54.28-5.99 54.21-6.35 54.07-6.65C53.93-6.94 53.73-7.18 53.48-7.36C53.23-7.54 52.92-7.67 52.56-7.75C52.20-7.83 51.80-7.87 51.37-7.87ZM51.25-3.94L49.96-3.94L49.96-7.07L51.25-7.07C51.93-7.07 52.44-6.96 52.78-6.74C53.11-6.52 53.28-6.12 53.28-5.56C53.28-5.00 53.11-4.59 52.78-4.33C52.45-4.07 51.94-3.94 51.25-3.94ZM58.62-3.20L56.26-3.20L56.63-4.40C56.77-4.84 56.91-5.28 57.04-5.72C57.16-6.15 57.29-6.60 57.41-7.06L57.46-7.06C57.58-6.60 57.71-6.15 57.84-5.72C57.97-5.28 58.10-4.84 58.25-4.40ZM58.87-2.40L59.62 0L60.68 0L58.02-7.87L56.89-7.87L54.23 0L55.25 0L56.00-2.40ZM61.80-7.87L61.80 0L62.80 0L62.80-3.12L64.21-3.12C64.64-3.12 65.04-3.17 65.39-3.27C65.75-3.37 66.06-3.52 66.31-3.72C66.57-3.92 66.77-4.17 66.91-4.48C67.05-4.78 67.12-5.14 67.12-5.56C67.12-5.99 67.05-6.35 66.91-6.65C66.77-6.94 66.57-7.18 66.32-7.36C66.07-7.54 65.76-7.67 65.40-7.75C65.04-7.83 64.64-7.87 64.21-7.87ZM64.09-3.94L62.80-3.94L62.80-7.07L64.09-7.07C64.77-7.07 65.28-6.96 65.62-6.74C65.95-6.52 66.12-6.12 66.12-5.56C66.12-5.00 65.95-4.59 65.62-4.33C65.29-4.07 64.78-3.94 64.09-3.94ZM68.71-7.87L68.71 0L73.37 0L73.37-0.85L69.71-0.85L69.71-3.71L72.70-3.71L72.70-4.56L69.71-4.56L69.71-7.03L73.25-7.03L73.25-7.87ZM76.03-4.14L76.03-7.07L77.35-7.07C77.97-7.07 78.44-6.96 78.77-6.76C79.10-6.55 79.26-6.18 79.26-5.66C79.26-5.15 79.10-4.77 78.77-4.52C78.44-4.27 77.97-4.14 77.35-4.14ZM79.36 0L80.48 0L78.49-3.43C79.03-3.57 79.46-3.82 79.78-4.19C80.10-4.56 80.26-5.05 80.26-5.66C80.26-6.07 80.19-6.42 80.05-6.70C79.92-6.98 79.73-7.20 79.48-7.38C79.24-7.56 78.95-7.68 78.61-7.76C78.27-7.83 77.90-7.87 77.50-7.87L75.04-7.87L75.04 0L76.03 0L76.03-3.32L77.46-3.32ZM81.20-7.87L82.87 0L84.06 0L85.22-4.74C85.29-5.04 85.35-5.34 85.42-5.63C85.49-5.93 85.56-6.22 85.62-6.53L85.67-6.53C85.73-6.22 85.79-5.93 85.85-5.63C85.91-5.34 85.98-5.04 86.05-4.74L87.24 0L88.44 0L90.07-7.87L89.11-7.87L88.28-3.59C88.20-3.16 88.13-2.74 88.06-2.32C87.98-1.90 87.91-1.48 87.84-1.04L87.79-1.04C87.70-1.48 87.60-1.90 87.50-2.33C87.41-2.75 87.31-3.17 87.22-3.59L86.12-7.87L85.21-7.87L84.12-3.59C84.03-3.16 83.94-2.74 83.84-2.32C83.75-1.90 83.66-1.48 83.57-1.04L83.52-1.04C83.45-1.48 83.37-1.90 83.29-2.32C83.21-2.73 83.14-3.16 83.06-3.59L82.24-7.87ZM94.27 0.14C94.77 0.14 95.22 0.05 95.63-0.14C96.05-0.34 96.40-0.61 96.70-0.97C97.00-1.32 97.23-1.75 97.40-2.26C97.56-2.77 97.64-3.34 97.64-3.97C97.64-4.60 97.56-5.16 97.40-5.66C97.23-6.16 97.00-6.58 96.70-6.93C96.40-7.28 96.05-7.55 95.63-7.73C95.22-7.92 94.77-8.02 94.27-8.02C93.78-8.02 93.32-7.92 92.91-7.74C92.50-7.56 92.14-7.29 91.85-6.94C91.55-6.59 91.32-6.17 91.16-5.67C90.99-5.17 90.91-4.60 90.91-3.97C90.91-3.34 90.99-2.77 91.16-2.26C91.32-1.75 91.55-1.32 91.85-0.97C92.14-0.61 92.50-0.34 92.91-0.14C93.32 0.05 93.78 0.14 94.27 0.14ZM94.27-0.73C93.92-0.73 93.60-0.81 93.32-0.96C93.03-1.11 92.79-1.33 92.59-1.61C92.38-1.90 92.22-2.24 92.11-2.63C92.00-3.03 91.94-3.48 91.94-3.97C91.94-4.46 92.00-4.90 92.11-5.29C92.22-5.68 92.38-6.02 92.59-6.29C92.79-6.56 93.03-6.77 93.32-6.92C93.60-7.07 93.92-7.14 94.27-7.14C94.62-7.14 94.94-7.07 95.23-6.92C95.51-6.77 95.75-6.56 95.96-6.29C96.16-6.02 96.32-5.68 96.43-5.29C96.54-4.90 96.60-4.46 96.60-3.97C96.60-3.48 96.54-3.03 96.43-2.63C96.32-2.24 96.16-1.90 95.96-1.61C95.75-1.33 95.51-1.11 95.23-0.96C94.94-0.81 94.62-0.73 94.27-0.73ZM100.33-4.14L100.33-7.07L101.65-7.07C102.27-7.07 102.74-6.96 103.07-6.76C103.40-6.55 103.56-6.18 103.56-5.66C103.56-5.15 103.40-4.77 103.07-4.52C102.74-4.27 102.27-4.14 101.65-4.14ZM103.66 0L104.78 0L102.79-3.43C103.33-3.57 103.76-3.82 104.08-4.19C104.40-4.56 104.56-5.05 104.56-5.66C104.56-6.07 104.49-6.42 104.35-6.70C104.22-6.98 104.03-7.20 103.78-7.38C103.54-7.56 103.25-7.68 102.91-7.76C102.57-7.83 102.20-7.87 101.80-7.87L99.34-7.87L99.34 0L100.33 0L100.33-3.32L101.76-3.32ZM106.31-7.87L106.31 0L107.30 0L107.30-2.50L108.66-4.09L111.01 0L112.13 0L109.28-4.87L111.74-7.87L110.62-7.87L107.34-3.92L107.30-3.92L107.30-7.87ZM113.44-6.91L113.57-2.38L114.25-2.38L114.38-6.91L114.41-8.04L113.41-8.04ZM113.20-0.60C113.20-0.38 113.27-0.21 113.41-0.07C113.55 0.07 113.72 0.14 113.92 0.14C114.11 0.14 114.27 0.07 114.41-0.07C114.55-0.21 114.62-0.38 114.62-0.60C114.62-0.83 114.55-1.02 114.41-1.16C114.27-1.30 114.11-1.37 113.92-1.37C113.72-1.37 113.55-1.30 113.41-1.16C113.27-1.02 113.20-0.83 113.20-0.60Z" transform="translate(-0.504, 8.040000000000001)"></path></g></g></g></g><mask id="5896ade0-ed49-435a-bcba-0168b7860d7a"><rect data-gra="graph-name" x="0" y="3.9000015258789062" width="41.52" height="36.5" fill="white"></rect> <g data-gra="path-name" transform="translate(-2.2888183437430598e-7,3)" fill="black"><g transform="scale(1)"><path d="M3.30 0L5.70-37.50L17.28-37.50L23.88-13.86L24.30-13.86L30.84-37.50L42.42-37.50L44.82 0L35.94 0L34.50-24L34.08-24L27.54 0L20.58 0L13.98-24L13.62-24L12.18 0L3.30 0Z" transform="translate(-3.3, 38.4)"></path></g></g></mask><defs v-gra="od"></defs></svg>