<svg data-v-2cb57da0="" version="1.0" xmlns="http://www.w3.org/2000/svg" xmlns:xlink="http://www.w3.org/1999/xlink" width="100%" height="100%" viewBox="0 0 340.000000 250.000000" preserveAspectRatio="xMidYMid meet" color-interpolation-filters="sRGB" style="margin: auto;"><rect data-v-2cb57da0="" x="0" y="0" width="100%" height="100%" fill="#ffffff" fill-opacity="0" class="background"></rect> <!----> <g data-v-2cb57da0="" class="iconmbgsvg" transform="translate(73.55250552296638,72.5)"><g fill="#404542" hollow-target="textRect"><g transform="translate(87.8949966430664,0)" mask="url(#cc143a79-9173-4ee0-a0e1-8f2845cbbeb7)"><g><rect fill="#404542" fill-opacity="0" stroke-width="2" x="0" y="0" width="105" height="105" class="image-rect"></rect> <svg filter="url(#colors8591157915)" x="0" y="0" width="105" height="105" filtersec="colorsf4352754811" class="image-svg-svg primary" style="overflow: visible;"><svg fill="#000000" xmlns="http://www.w3.org/2000/svg" xmlns:xlink="http://www.w3.org/1999/xlink" xml:space="preserve" style="shape-rendering:geometricPrecision;text-rendering:geometricPrecision;image-rendering:optimizeQuality;" viewBox="2.6456985473632812 2.6456899642944336 94.70860290527344 94.70860290527344" x="0px" y="0px" fill-rule="evenodd" clip-rule="evenodd"><defs></defs><g><path class="fil0" d="M50 2.64569c26.1522,0 47.3543,21.2021 47.3543,47.3543 0,26.1522 -21.2021,47.3543 -47.3543,47.3543 -26.1522,0 -47.3543,-21.2021 -47.3543,-47.3543 0,-26.1522 21.2021,-47.3543 47.3543,-47.3543zm0 5.90556c-22.8899,0 -41.4488,18.5588 -41.4488,41.4488 0,22.8899 18.5588,41.4488 41.4488,41.4488 22.8899,0 41.4488,-18.5588 41.4488,-41.4488 0,-22.8899 -18.5588,-41.4488 -41.4488,-41.4488z"></path></g></svg></svg> <defs><filter id="colors8591157915"><feColorMatrix type="matrix" values="0 0 0 0 0.37109375  0 0 0 0 0.4375  0 0 0 0 0.39453125  0 0 0 1 0" class="icon-fecolormatrix"></feColorMatrix></filter> <filter id="colorsf4352754811"><feColorMatrix type="matrix" values="0 0 0 0 0.99609375  0 0 0 0 0.99609375  0 0 0 0 0.99609375  0 0 0 1 0" class="icon-fecolormatrix"></feColorMatrix></filter> <filter id="colorsb6098193119"><feColorMatrix type="matrix" values="0 0 0 0 0  0 0 0 0 0  0 0 0 0 0  0 0 0 1 0" class="icon-fecolormatrix"></feColorMatrix></filter></defs></g><rect v-gra="id" width="117" height="117" transform="translate(-6, -6)" style="pointer-events:none;" fill="url(#FPHWhz6bvvIl2J2g1UvxW)"></rect></g> <g transform="translate(0,35.46000099182129)"><g data-gra="path-name" fill-rule="" class="tp-name" transform="translate(0,0)" fill="url(#e702cc03-d3b8-4657-affa-8908449bfc16)"><g transform="scale(1)"><g><path d="M35.82-4.77L32.35-4.77 20.43-30.6 8.64-30.6 8.64-25.83 13.14-25.83 3.33-4.77 0.32-4.77 0.32 0 13.18 0 13.18-4.77 9.09-4.77 11.12-9.31 24.61-9.31 26.68-4.77 22.18-4.77 22.18 0 35.82 0ZM22.5-13.9L13.18-13.9 17.82-24.16ZM63.58-30.6L37.48-30.6 37.48-25.83 41.35-25.83 41.35-4.77 37.48-4.77 37.48 0 51.75 0 51.75-4.77 46.75-4.77 46.75-11.79 58.18-11.79 58.18-16.79 46.75-16.79 46.75-25.61 58.72-25.61 58.72-20.34 63.58-20.34ZM93.11-30.6L67-30.6 67-25.83 70.88-25.83 70.88-4.77 67-4.77 67 0 81.27 0 81.27-4.77 76.28-4.77 76.28-11.79 87.7-11.79 87.7-16.79 76.28-16.79 76.28-25.61 88.25-25.61 88.25-20.34 93.11-20.34ZM108.18-18.09C104.63-18.68 102.78-19.84 102.78-22.32 102.78-24.97 104.85-26.59 108.63-26.59 113.22-26.59 115.56-24.25 117.05-21.55L122-21.55 122-30.6 117.36-30.6 117.36-27.95C115.29-30.2 112.19-31.27 108.36-31.27 101.39-31.27 97.11-27.63 97.11-22.05 97.11-17.41 100.04-14.26 106.16-13.32L112.05-12.33C115.74-11.74 116.87-9.95 116.87-8.19 116.87-5.85 114.57-4.32 111.15-4.32 106.16-4.32 104-6.39 101.43-9.99L96.39-9.99 96.39 0 101.43 0 101.43-3.19C103.5-0.85 106.65 0.63 111.24 0.63 118.22 0.63 122.45-2.83 122.45-8.46 122.45-13.54 118.94-16.34 112.91-17.32ZM161.24-25.83L165.11-25.83 165.11-30.6 157.77-30.6 145.53-11.65 133.29-30.6 126.05-30.6 126.05-25.83 129.82-25.83 129.82-4.77 125.95-4.77 125.95 0 139.09 0 139.09-4.77 135.22-4.77 135.18-18.81 143.91-4.91 147.19-4.91 155.79-18.63 155.79-4.77 151.97-4.77 151.97 0 165.11 0 165.11-4.77 161.24-4.77Z" transform="translate(-0.320000022649765, 31.270000457763672)"></path></g> <!----> <!----> <!----> <!----> <!----> <!----> <!----></g></g> <g data-gra="path-slogan" fill-rule="" class="tp-slogan" fill="#0a0619" transform="translate(8.334999084472656,38.89999961853027)"><!----> <!----> <g transform="scale(1, 1)"><g transform="scale(1)"><path d="M0.50-1.02L1.10-1.72Q1.52-1.27 2.09-1.00Q2.66-0.73 3.28-0.73L3.28-0.73Q4.06-0.73 4.49-1.09Q4.92-1.44 4.92-2.02L4.92-2.02Q4.92-2.32 4.82-2.53Q4.72-2.74 4.54-2.89Q4.37-3.04 4.13-3.16Q3.89-3.28 3.61-3.41L3.61-3.41L2.48-3.90Q2.21-4.02 1.92-4.19Q1.63-4.36 1.40-4.60Q1.18-4.84 1.03-5.17Q0.89-5.50 0.89-5.93L0.89-5.93Q0.89-6.37 1.07-6.76Q1.26-7.14 1.59-7.42Q1.92-7.70 2.37-7.86Q2.82-8.02 3.36-8.02L3.36-8.02Q4.07-8.02 4.67-7.75Q5.27-7.48 5.69-7.04L5.69-7.04L5.15-6.40Q4.79-6.74 4.35-6.94Q3.91-7.14 3.36-7.14L3.36-7.14Q2.70-7.14 2.30-6.83Q1.90-6.53 1.90-5.99L1.90-5.99Q1.90-5.70 2.01-5.50Q2.12-5.30 2.32-5.15Q2.51-5.00 2.74-4.89Q2.96-4.78 3.20-4.68L3.20-4.68L4.32-4.20Q4.66-4.06 4.96-3.87Q5.26-3.68 5.47-3.44Q5.69-3.19 5.81-2.86Q5.94-2.53 5.94-2.10L5.94-2.10Q5.94-1.63 5.75-1.22Q5.57-0.82 5.22-0.51Q4.87-0.20 4.38-0.03Q3.89 0.14 3.26 0.14L3.26 0.14Q2.44 0.14 1.73-0.17Q1.02-0.48 0.50-1.02L0.50-1.02ZM12.39 0.14L12.39 0.14Q11.65 0.14 11.03-0.14Q10.41-0.43 9.97-0.97Q9.52-1.50 9.28-2.26Q9.03-3.02 9.03-3.97L9.03-3.97Q9.03-4.92 9.28-5.67Q9.52-6.42 9.97-6.94Q10.41-7.46 11.03-7.74Q11.65-8.02 12.39-8.02L12.39-8.02Q13.14-8.02 13.75-7.73Q14.37-7.45 14.82-6.93Q15.27-6.41 15.52-5.66Q15.76-4.91 15.76-3.97L15.76-3.97Q15.76-3.02 15.52-2.26Q15.27-1.50 14.82-0.97Q14.37-0.43 13.75-0.14Q13.14 0.14 12.39 0.14ZM12.39-0.73L12.39-0.73Q12.92-0.73 13.35-0.96Q13.77-1.19 14.08-1.61Q14.38-2.04 14.55-2.63Q14.72-3.23 14.72-3.97L14.72-3.97Q14.72-4.70 14.55-5.29Q14.38-5.88 14.08-6.29Q13.77-6.70 13.35-6.92Q12.92-7.14 12.39-7.14L12.39-7.14Q11.86-7.14 11.44-6.92Q11.01-6.70 10.71-6.29Q10.40-5.88 10.23-5.29Q10.06-4.70 10.06-3.97L10.06-3.97Q10.06-3.23 10.23-2.63Q10.40-2.04 10.71-1.61Q11.01-1.19 11.44-0.96Q11.86-0.73 12.39-0.73ZM23.88 0L23.88-7.87L24.88-7.87L24.88-0.85L28.32-0.85L28.32 0L23.88 0ZM34.30 0.14L34.30 0.14Q33.56 0.14 32.94-0.14Q32.32-0.43 31.88-0.97Q31.44-1.50 31.19-2.26Q30.94-3.02 30.94-3.97L30.94-3.97Q30.94-4.92 31.19-5.67Q31.44-6.42 31.88-6.94Q32.32-7.46 32.94-7.74Q33.56-8.02 34.30-8.02L34.30-8.02Q35.05-8.02 35.67-7.73Q36.28-7.45 36.73-6.93Q37.18-6.41 37.43-5.66Q37.68-4.91 37.68-3.97L37.68-3.97Q37.68-3.02 37.43-2.26Q37.18-1.50 36.73-0.97Q36.28-0.43 35.67-0.14Q35.05 0.14 34.30 0.14ZM34.30-0.73L34.30-0.73Q34.83-0.73 35.26-0.96Q35.68-1.19 35.99-1.61Q36.30-2.04 36.46-2.63Q36.63-3.23 36.63-3.97L36.63-3.97Q36.63-4.70 36.46-5.29Q36.30-5.88 35.99-6.29Q35.68-6.70 35.26-6.92Q34.83-7.14 34.30-7.14L34.30-7.14Q33.78-7.14 33.35-6.92Q32.92-6.70 32.62-6.29Q32.31-5.88 32.14-5.29Q31.98-4.70 31.98-3.97L31.98-3.97Q31.98-3.23 32.14-2.63Q32.31-2.04 32.62-1.61Q32.92-1.19 33.35-0.96Q33.78-0.73 34.30-0.73ZM41.37 0L41.37-7.87L42.40-7.87L45.24-2.93L46.10-1.30L46.14-1.30Q46.11-1.90 46.07-2.54Q46.02-3.18 46.02-3.80L46.02-3.80L46.02-7.87L46.97-7.87L46.97 0L45.94 0L43.08-4.96L42.23-6.58L42.18-6.58Q42.23-5.98 42.27-5.36Q42.32-4.74 42.32-4.12L42.32-4.12L42.32 0L41.37 0ZM50.68-3.94L50.68-3.94Q50.68-4.88 50.95-5.64Q51.22-6.40 51.70-6.92Q52.19-7.45 52.85-7.73Q53.51-8.02 54.30-8.02L54.30-8.02Q55.12-8.02 55.66-7.71Q56.21-7.40 56.56-7.04L56.56-7.04L55.99-6.41Q55.69-6.72 55.30-6.93Q54.91-7.14 54.31-7.14L54.31-7.14Q53.71-7.14 53.23-6.92Q52.75-6.70 52.42-6.28Q52.08-5.87 51.89-5.28Q51.71-4.69 51.71-3.96L51.71-3.96Q51.71-3.22 51.88-2.62Q52.06-2.03 52.39-1.61Q52.72-1.19 53.20-0.96Q53.69-0.73 54.32-0.73L54.32-0.73Q54.74-0.73 55.12-0.86Q55.50-0.98 55.74-1.20L55.74-1.20L55.74-3.25L54.07-3.25L54.07-4.08L56.65-4.08L56.65-0.77Q56.27-0.37 55.64-0.11Q55.01 0.14 54.22 0.14L54.22 0.14Q53.44 0.14 52.79-0.13Q52.14-0.41 51.67-0.93Q51.20-1.45 50.94-2.21Q50.68-2.98 50.68-3.94ZM64.96 0L64.96-7.87L67.37-7.87Q68.02-7.87 68.56-7.75Q69.10-7.63 69.48-7.36Q69.86-7.09 70.07-6.65Q70.28-6.20 70.28-5.56L70.28-5.56Q70.28-4.93 70.07-4.48Q69.86-4.02 69.47-3.72Q69.09-3.42 68.55-3.27Q68.02-3.12 67.37-3.12L67.37-3.12L65.96-3.12L65.96 0L64.96 0ZM65.96-3.94L67.25-3.94Q68.28-3.94 68.78-4.33Q69.28-4.72 69.28-5.56L69.28-5.56Q69.28-6.41 68.78-6.74Q68.27-7.07 67.25-7.07L67.25-7.07L65.96-7.07L65.96-3.94ZM74.26-3.20L76.62-3.20L76.25-4.40Q76.03-5.06 75.84-5.72Q75.65-6.37 75.46-7.06L75.46-7.06L75.41-7.06Q75.23-6.37 75.04-5.72Q74.84-5.06 74.63-4.40L74.63-4.40L74.26-3.20ZM77.62 0L76.87-2.40L74.00-2.40L73.25 0L72.23 0L74.89-7.87L76.02-7.87L78.68 0L77.62 0ZM81.80 0L81.80-7.87L84.21-7.87Q84.86-7.87 85.40-7.75Q85.94-7.63 86.32-7.36Q86.70-7.09 86.91-6.65Q87.12-6.20 87.12-5.56L87.12-5.56Q87.12-4.93 86.91-4.48Q86.70-4.02 86.31-3.72Q85.93-3.42 85.39-3.27Q84.86-3.12 84.21-3.12L84.21-3.12L82.80-3.12L82.80 0L81.80 0ZM82.80-3.94L84.09-3.94Q85.12-3.94 85.62-4.33Q86.12-4.72 86.12-5.56L86.12-5.56Q86.12-6.41 85.62-6.74Q85.11-7.07 84.09-7.07L84.09-7.07L82.80-7.07L82.80-3.94ZM90.71 0L90.71-7.87L95.25-7.87L95.25-7.03L91.71-7.03L91.71-4.56L94.70-4.56L94.70-3.71L91.71-3.71L91.71-0.85L95.37-0.85L95.37 0L90.71 0ZM100.03-7.07L100.03-4.14L101.35-4.14Q102.28-4.14 102.77-4.52Q103.26-4.90 103.26-5.66L103.26-5.66Q103.26-6.44 102.77-6.76Q102.28-7.07 101.35-7.07L101.35-7.07L100.03-7.07ZM104.48 0L103.36 0L101.46-3.32L100.03-3.32L100.03 0L99.04 0L99.04-7.87L101.50-7.87Q102.10-7.87 102.61-7.76Q103.12-7.64 103.48-7.38Q103.85-7.12 104.05-6.70Q104.26-6.28 104.26-5.66L104.26-5.66Q104.26-4.74 103.78-4.19Q103.30-3.64 102.49-3.43L102.49-3.43L104.48 0ZM108.87 0L107.20-7.87L108.24-7.87L109.06-3.59Q109.17-2.94 109.29-2.32Q109.41-1.69 109.52-1.04L109.52-1.04L109.57-1.04Q109.70-1.69 109.84-2.32Q109.99-2.95 110.12-3.59L110.12-3.59L111.21-7.87L112.12-7.87L113.22-3.59Q113.36-2.96 113.50-2.33Q113.65-1.69 113.79-1.04L113.79-1.04L113.84-1.04Q113.95-1.69 114.06-2.32Q114.16-2.95 114.28-3.59L114.28-3.59L115.11-7.87L116.07-7.87L114.44 0L113.24 0L112.05-4.74Q111.94-5.20 111.85-5.63Q111.76-6.07 111.67-6.53L111.67-6.53L111.62-6.53Q111.52-6.07 111.42-5.63Q111.32-5.20 111.22-4.74L111.22-4.74L110.06 0L108.87 0ZM122.27 0.14L122.27 0.14Q121.53 0.14 120.91-0.14Q120.29-0.43 119.85-0.97Q119.40-1.50 119.16-2.26Q118.91-3.02 118.91-3.97L118.91-3.97Q118.91-4.92 119.16-5.67Q119.40-6.42 119.85-6.94Q120.29-7.46 120.91-7.74Q121.53-8.02 122.27-8.02L122.27-8.02Q123.02-8.02 123.63-7.73Q124.25-7.45 124.70-6.93Q125.15-6.41 125.40-5.66Q125.64-4.91 125.64-3.97L125.64-3.97Q125.64-3.02 125.40-2.26Q125.15-1.50 124.70-0.97Q124.25-0.43 123.63-0.14Q123.02 0.14 122.27 0.14ZM122.27-0.73L122.27-0.73Q122.80-0.73 123.23-0.96Q123.65-1.19 123.96-1.61Q124.26-2.04 124.43-2.63Q124.60-3.23 124.60-3.97L124.60-3.97Q124.60-4.70 124.43-5.29Q124.26-5.88 123.96-6.29Q123.65-6.70 123.23-6.92Q122.80-7.14 122.27-7.14L122.27-7.14Q121.74-7.14 121.32-6.92Q120.89-6.70 120.59-6.29Q120.28-5.88 120.11-5.29Q119.94-4.70 119.94-3.97L119.94-3.97Q119.94-3.23 120.11-2.63Q120.28-2.04 120.59-1.61Q120.89-1.19 121.32-0.96Q121.74-0.73 122.27-0.73ZM130.33-7.07L130.33-4.14L131.65-4.14Q132.58-4.14 133.07-4.52Q133.56-4.90 133.56-5.66L133.56-5.66Q133.56-6.44 133.07-6.76Q132.58-7.07 131.65-7.07L131.65-7.07L130.33-7.07ZM134.78 0L133.66 0L131.76-3.32L130.33-3.32L130.33 0L129.34 0L129.34-7.87L131.80-7.87Q132.40-7.87 132.91-7.76Q133.42-7.64 133.78-7.38Q134.15-7.12 134.35-6.70Q134.56-6.28 134.56-5.66L134.56-5.66Q134.56-4.74 134.08-4.19Q133.60-3.64 132.79-3.43L132.79-3.43L134.78 0ZM138.31 0L138.31-7.87L139.30-7.87L139.30-3.92L139.34-3.92L142.62-7.87L143.74-7.87L141.28-4.87L144.13 0L143.01 0L140.66-4.09L139.30-2.50L139.30 0L138.31 0ZM147.57-2.38L147.44-6.91L147.41-8.04L148.41-8.04L148.38-6.91L148.25-2.38L147.57-2.38ZM147.20-0.60L147.20-0.60Q147.20-0.95 147.41-1.16Q147.62-1.37 147.92-1.37L147.92-1.37Q148.20-1.37 148.41-1.16Q148.62-0.95 148.62-0.60L148.62-0.60Q148.62-0.28 148.41-0.07Q148.20 0.14 147.92 0.14L147.92 0.14Q147.62 0.14 147.41-0.07Q147.20-0.28 147.20-0.60Z" transform="translate(-0.504, 8.040000000000001)"></path></g></g></g></g></g></g><mask id="ee1844be-8d09-4273-99d5-7f4242dbdc37"><g fill="white"><g><rect fill-opacity="1" stroke-width="2" x="0" y="0" width="105" height="105" class="image-rect"></rect> <svg x="0" y="0" width="105" height="105" class="image-svg-svg primary" style="overflow: visible;" filter="url(#colorsf4352754811)"><svg xmlns="http://www.w3.org/2000/svg" xmlns:xlink="http://www.w3.org/1999/xlink" xml:space="preserve" style="shape-rendering:geometricPrecision;text-rendering:geometricPrecision;image-rendering:optimizeQuality;" viewBox="2.6456985473632812 2.6456899642944336 94.70860290527344 94.70860290527344" x="0px" y="0px" fill-rule="evenodd" clip-rule="evenodd"><defs></defs><g><path class="fil0" d="M50 2.64569c26.1522,0 47.3543,21.2021 47.3543,47.3543 0,26.1522 -21.2021,47.3543 -47.3543,47.3543 -26.1522,0 -47.3543,-21.2021 -47.3543,-47.3543 0,-26.1522 21.2021,-47.3543 47.3543,-47.3543zm0 5.90556c-22.8899,0 -41.4488,18.5588 -41.4488,41.4488 0,22.8899 18.5588,41.4488 41.4488,41.4488 22.8899,0 41.4488,-18.5588 41.4488,-41.4488 0,-22.8899 -18.5588,-41.4488 -41.4488,-41.4488z"></path></g></svg></svg> <defs>  </defs></g></g> <g transform="translate(-87.8949966430664,35.46000099182129)"><rect fill="black" fill-opacity="1" x="-3.5" y="-3.5" width="171.7899932861328" height="38.89999961853027"></rect><rect fill="black" fill-opacity="1" x="-3.5" y="-3.5" transform="translate(8.330999076366425,38.89999961853027)" width="155.1199951171875" height="15.180000305175781"></rect></g><g transform="translate(-87.8949966430664,35.46000099182129)" fill="black"><g data-gra="path-name" fill-rule="" class="tp-name" transform="translate(0,0)"><g transform="scale(1)"><g><path d="M35.82-4.77L32.35-4.77 20.43-30.6 8.64-30.6 8.64-25.83 13.14-25.83 3.33-4.77 0.32-4.77 0.32 0 13.18 0 13.18-4.77 9.09-4.77 11.12-9.31 24.61-9.31 26.68-4.77 22.18-4.77 22.18 0 35.82 0ZM22.5-13.9L13.18-13.9 17.82-24.16ZM63.58-30.6L37.48-30.6 37.48-25.83 41.35-25.83 41.35-4.77 37.48-4.77 37.48 0 51.75 0 51.75-4.77 46.75-4.77 46.75-11.79 58.18-11.79 58.18-16.79 46.75-16.79 46.75-25.61 58.72-25.61 58.72-20.34 63.58-20.34ZM93.11-30.6L67-30.6 67-25.83 70.88-25.83 70.88-4.77 67-4.77 67 0 81.27 0 81.27-4.77 76.28-4.77 76.28-11.79 87.7-11.79 87.7-16.79 76.28-16.79 76.28-25.61 88.25-25.61 88.25-20.34 93.11-20.34ZM108.18-18.09C104.63-18.68 102.78-19.84 102.78-22.32 102.78-24.97 104.85-26.59 108.63-26.59 113.22-26.59 115.56-24.25 117.05-21.55L122-21.55 122-30.6 117.36-30.6 117.36-27.95C115.29-30.2 112.19-31.27 108.36-31.27 101.39-31.27 97.11-27.63 97.11-22.05 97.11-17.41 100.04-14.26 106.16-13.32L112.05-12.33C115.74-11.74 116.87-9.95 116.87-8.19 116.87-5.85 114.57-4.32 111.15-4.32 106.16-4.32 104-6.39 101.43-9.99L96.39-9.99 96.39 0 101.43 0 101.43-3.19C103.5-0.85 106.65 0.63 111.24 0.63 118.22 0.63 122.45-2.83 122.45-8.46 122.45-13.54 118.94-16.34 112.91-17.32ZM161.24-25.83L165.11-25.83 165.11-30.6 157.77-30.6 145.53-11.65 133.29-30.6 126.05-30.6 126.05-25.83 129.82-25.83 129.82-4.77 125.95-4.77 125.95 0 139.09 0 139.09-4.77 135.22-4.77 135.18-18.81 143.91-4.91 147.19-4.91 155.79-18.63 155.79-4.77 151.97-4.77 151.97 0 165.11 0 165.11-4.77 161.24-4.77Z" transform="translate(-0.320000022649765, 31.270000457763672)"></path></g>       </g></g> <g data-gra="path-slogan" fill-rule="" class="tp-slogan" transform="translate(8.334999084472656,38.89999961853027)">  <g transform="scale(1, 1)"><g transform="scale(1)"><path d="M0.50-1.02L1.10-1.72Q1.52-1.27 2.09-1.00Q2.66-0.73 3.28-0.73L3.28-0.73Q4.06-0.73 4.49-1.09Q4.92-1.44 4.92-2.02L4.92-2.02Q4.92-2.32 4.82-2.53Q4.72-2.74 4.54-2.89Q4.37-3.04 4.13-3.16Q3.89-3.28 3.61-3.41L3.61-3.41L2.48-3.90Q2.21-4.02 1.92-4.19Q1.63-4.36 1.40-4.60Q1.18-4.84 1.03-5.17Q0.89-5.50 0.89-5.93L0.89-5.93Q0.89-6.37 1.07-6.76Q1.26-7.14 1.59-7.42Q1.92-7.70 2.37-7.86Q2.82-8.02 3.36-8.02L3.36-8.02Q4.07-8.02 4.67-7.75Q5.27-7.48 5.69-7.04L5.69-7.04L5.15-6.40Q4.79-6.74 4.35-6.94Q3.91-7.14 3.36-7.14L3.36-7.14Q2.70-7.14 2.30-6.83Q1.90-6.53 1.90-5.99L1.90-5.99Q1.90-5.70 2.01-5.50Q2.12-5.30 2.32-5.15Q2.51-5.00 2.74-4.89Q2.96-4.78 3.20-4.68L3.20-4.68L4.32-4.20Q4.66-4.06 4.96-3.87Q5.26-3.68 5.47-3.44Q5.69-3.19 5.81-2.86Q5.94-2.53 5.94-2.10L5.94-2.10Q5.94-1.63 5.75-1.22Q5.57-0.82 5.22-0.51Q4.87-0.20 4.38-0.03Q3.89 0.14 3.26 0.14L3.26 0.14Q2.44 0.14 1.73-0.17Q1.02-0.48 0.50-1.02L0.50-1.02ZM12.39 0.14L12.39 0.14Q11.65 0.14 11.03-0.14Q10.41-0.43 9.97-0.97Q9.52-1.50 9.28-2.26Q9.03-3.02 9.03-3.97L9.03-3.97Q9.03-4.92 9.28-5.67Q9.52-6.42 9.97-6.94Q10.41-7.46 11.03-7.74Q11.65-8.02 12.39-8.02L12.39-8.02Q13.14-8.02 13.75-7.73Q14.37-7.45 14.82-6.93Q15.27-6.41 15.52-5.66Q15.76-4.91 15.76-3.97L15.76-3.97Q15.76-3.02 15.52-2.26Q15.27-1.50 14.82-0.97Q14.37-0.43 13.75-0.14Q13.14 0.14 12.39 0.14ZM12.39-0.73L12.39-0.73Q12.92-0.73 13.35-0.96Q13.77-1.19 14.08-1.61Q14.38-2.04 14.55-2.63Q14.72-3.23 14.72-3.97L14.72-3.97Q14.72-4.70 14.55-5.29Q14.38-5.88 14.08-6.29Q13.77-6.70 13.35-6.92Q12.92-7.14 12.39-7.14L12.39-7.14Q11.86-7.14 11.44-6.92Q11.01-6.70 10.71-6.29Q10.40-5.88 10.23-5.29Q10.06-4.70 10.06-3.97L10.06-3.97Q10.06-3.23 10.23-2.63Q10.40-2.04 10.71-1.61Q11.01-1.19 11.44-0.96Q11.86-0.73 12.39-0.73ZM23.88 0L23.88-7.87L24.88-7.87L24.88-0.85L28.32-0.85L28.32 0L23.88 0ZM34.30 0.14L34.30 0.14Q33.56 0.14 32.94-0.14Q32.32-0.43 31.88-0.97Q31.44-1.50 31.19-2.26Q30.94-3.02 30.94-3.97L30.94-3.97Q30.94-4.92 31.19-5.67Q31.44-6.42 31.88-6.94Q32.32-7.46 32.94-7.74Q33.56-8.02 34.30-8.02L34.30-8.02Q35.05-8.02 35.67-7.73Q36.28-7.45 36.73-6.93Q37.18-6.41 37.43-5.66Q37.68-4.91 37.68-3.97L37.68-3.97Q37.68-3.02 37.43-2.26Q37.18-1.50 36.73-0.97Q36.28-0.43 35.67-0.14Q35.05 0.14 34.30 0.14ZM34.30-0.73L34.30-0.73Q34.83-0.73 35.26-0.96Q35.68-1.19 35.99-1.61Q36.30-2.04 36.46-2.63Q36.63-3.23 36.63-3.97L36.63-3.97Q36.63-4.70 36.46-5.29Q36.30-5.88 35.99-6.29Q35.68-6.70 35.26-6.92Q34.83-7.14 34.30-7.14L34.30-7.14Q33.78-7.14 33.35-6.92Q32.92-6.70 32.62-6.29Q32.31-5.88 32.14-5.29Q31.98-4.70 31.98-3.97L31.98-3.97Q31.98-3.23 32.14-2.63Q32.31-2.04 32.62-1.61Q32.92-1.19 33.35-0.96Q33.78-0.73 34.30-0.73ZM41.37 0L41.37-7.87L42.40-7.87L45.24-2.93L46.10-1.30L46.14-1.30Q46.11-1.90 46.07-2.54Q46.02-3.18 46.02-3.80L46.02-3.80L46.02-7.87L46.97-7.87L46.97 0L45.94 0L43.08-4.96L42.23-6.58L42.18-6.58Q42.23-5.98 42.27-5.36Q42.32-4.74 42.32-4.12L42.32-4.12L42.32 0L41.37 0ZM50.68-3.94L50.68-3.94Q50.68-4.88 50.95-5.64Q51.22-6.40 51.70-6.92Q52.19-7.45 52.85-7.73Q53.51-8.02 54.30-8.02L54.30-8.02Q55.12-8.02 55.66-7.71Q56.21-7.40 56.56-7.04L56.56-7.04L55.99-6.41Q55.69-6.72 55.30-6.93Q54.91-7.14 54.31-7.14L54.31-7.14Q53.71-7.14 53.23-6.92Q52.75-6.70 52.42-6.28Q52.08-5.87 51.89-5.28Q51.71-4.69 51.71-3.96L51.71-3.96Q51.71-3.22 51.88-2.62Q52.06-2.03 52.39-1.61Q52.72-1.19 53.20-0.96Q53.69-0.73 54.32-0.73L54.32-0.73Q54.74-0.73 55.12-0.86Q55.50-0.98 55.74-1.20L55.74-1.20L55.74-3.25L54.07-3.25L54.07-4.08L56.65-4.08L56.65-0.77Q56.27-0.37 55.64-0.11Q55.01 0.14 54.22 0.14L54.22 0.14Q53.44 0.14 52.79-0.13Q52.14-0.41 51.67-0.93Q51.20-1.45 50.94-2.21Q50.68-2.98 50.68-3.94ZM64.96 0L64.96-7.87L67.37-7.87Q68.02-7.87 68.56-7.75Q69.10-7.63 69.48-7.36Q69.86-7.09 70.07-6.65Q70.28-6.20 70.28-5.56L70.28-5.56Q70.28-4.93 70.07-4.48Q69.86-4.02 69.47-3.72Q69.09-3.42 68.55-3.27Q68.02-3.12 67.37-3.12L67.37-3.12L65.96-3.12L65.96 0L64.96 0ZM65.96-3.94L67.25-3.94Q68.28-3.94 68.78-4.33Q69.28-4.72 69.28-5.56L69.28-5.56Q69.28-6.41 68.78-6.74Q68.27-7.07 67.25-7.07L67.25-7.07L65.96-7.07L65.96-3.94ZM74.26-3.20L76.62-3.20L76.25-4.40Q76.03-5.06 75.84-5.72Q75.65-6.37 75.46-7.06L75.46-7.06L75.41-7.06Q75.23-6.37 75.04-5.72Q74.84-5.06 74.63-4.40L74.63-4.40L74.26-3.20ZM77.62 0L76.87-2.40L74.00-2.40L73.25 0L72.23 0L74.89-7.87L76.02-7.87L78.68 0L77.62 0ZM81.80 0L81.80-7.87L84.21-7.87Q84.86-7.87 85.40-7.75Q85.94-7.63 86.32-7.36Q86.70-7.09 86.91-6.65Q87.12-6.20 87.12-5.56L87.12-5.56Q87.12-4.93 86.91-4.48Q86.70-4.02 86.31-3.72Q85.93-3.42 85.39-3.27Q84.86-3.12 84.21-3.12L84.21-3.12L82.80-3.12L82.80 0L81.80 0ZM82.80-3.94L84.09-3.94Q85.12-3.94 85.62-4.33Q86.12-4.72 86.12-5.56L86.12-5.56Q86.12-6.41 85.62-6.74Q85.11-7.07 84.09-7.07L84.09-7.07L82.80-7.07L82.80-3.94ZM90.71 0L90.71-7.87L95.25-7.87L95.25-7.03L91.71-7.03L91.71-4.56L94.70-4.56L94.70-3.71L91.71-3.71L91.71-0.85L95.37-0.85L95.37 0L90.71 0ZM100.03-7.07L100.03-4.14L101.35-4.14Q102.28-4.14 102.77-4.52Q103.26-4.90 103.26-5.66L103.26-5.66Q103.26-6.44 102.77-6.76Q102.28-7.07 101.35-7.07L101.35-7.07L100.03-7.07ZM104.48 0L103.36 0L101.46-3.32L100.03-3.32L100.03 0L99.04 0L99.04-7.87L101.50-7.87Q102.10-7.87 102.61-7.76Q103.12-7.64 103.48-7.38Q103.85-7.12 104.05-6.70Q104.26-6.28 104.26-5.66L104.26-5.66Q104.26-4.74 103.78-4.19Q103.30-3.64 102.49-3.43L102.49-3.43L104.48 0ZM108.87 0L107.20-7.87L108.24-7.87L109.06-3.59Q109.17-2.94 109.29-2.32Q109.41-1.69 109.52-1.04L109.52-1.04L109.57-1.04Q109.70-1.69 109.84-2.32Q109.99-2.95 110.12-3.59L110.12-3.59L111.21-7.87L112.12-7.87L113.22-3.59Q113.36-2.96 113.50-2.33Q113.65-1.69 113.79-1.04L113.79-1.04L113.84-1.04Q113.95-1.69 114.06-2.32Q114.16-2.95 114.28-3.59L114.28-3.59L115.11-7.87L116.07-7.87L114.44 0L113.24 0L112.05-4.74Q111.94-5.20 111.85-5.63Q111.76-6.07 111.67-6.53L111.67-6.53L111.62-6.53Q111.52-6.07 111.42-5.63Q111.32-5.20 111.22-4.74L111.22-4.74L110.06 0L108.87 0ZM122.27 0.14L122.27 0.14Q121.53 0.14 120.91-0.14Q120.29-0.43 119.85-0.97Q119.40-1.50 119.16-2.26Q118.91-3.02 118.91-3.97L118.91-3.97Q118.91-4.92 119.16-5.67Q119.40-6.42 119.85-6.94Q120.29-7.46 120.91-7.74Q121.53-8.02 122.27-8.02L122.27-8.02Q123.02-8.02 123.63-7.73Q124.25-7.45 124.70-6.93Q125.15-6.41 125.40-5.66Q125.64-4.91 125.64-3.97L125.64-3.97Q125.64-3.02 125.40-2.26Q125.15-1.50 124.70-0.97Q124.25-0.43 123.63-0.14Q123.02 0.14 122.27 0.14ZM122.27-0.73L122.27-0.73Q122.80-0.73 123.23-0.96Q123.65-1.19 123.96-1.61Q124.26-2.04 124.43-2.63Q124.60-3.23 124.60-3.97L124.60-3.97Q124.60-4.70 124.43-5.29Q124.26-5.88 123.96-6.29Q123.65-6.70 123.23-6.92Q122.80-7.14 122.27-7.14L122.27-7.14Q121.74-7.14 121.32-6.92Q120.89-6.70 120.59-6.29Q120.28-5.88 120.11-5.29Q119.94-4.70 119.94-3.97L119.94-3.97Q119.94-3.23 120.11-2.63Q120.28-2.04 120.59-1.61Q120.89-1.19 121.32-0.96Q121.74-0.73 122.27-0.73ZM130.33-7.07L130.33-4.14L131.65-4.14Q132.58-4.14 133.07-4.52Q133.56-4.90 133.56-5.66L133.56-5.66Q133.56-6.44 133.07-6.76Q132.58-7.07 131.65-7.07L131.65-7.07L130.33-7.07ZM134.78 0L133.66 0L131.76-3.32L130.33-3.32L130.33 0L129.34 0L129.34-7.87L131.80-7.87Q132.40-7.87 132.91-7.76Q133.42-7.64 133.78-7.38Q134.15-7.12 134.35-6.70Q134.56-6.28 134.56-5.66L134.56-5.66Q134.56-4.74 134.08-4.19Q133.60-3.64 132.79-3.43L132.79-3.43L134.78 0ZM138.31 0L138.31-7.87L139.30-7.87L139.30-3.92L139.34-3.92L142.62-7.87L143.74-7.87L141.28-4.87L144.13 0L143.01 0L140.66-4.09L139.30-2.50L139.30 0L138.31 0ZM147.57-2.38L147.44-6.91L147.41-8.04L148.41-8.04L148.38-6.91L148.25-2.38L147.57-2.38ZM147.20-0.60L147.20-0.60Q147.20-0.95 147.41-1.16Q147.62-1.37 147.92-1.37L147.92-1.37Q148.20-1.37 148.41-1.16Q148.62-0.95 148.62-0.60L148.62-0.60Q148.62-0.28 148.41-0.07Q148.20 0.14 147.92 0.14L147.92 0.14Q147.62 0.14 147.41-0.07Q147.20-0.28 147.20-0.60Z" transform="translate(-0.504, 8.040000000000001)"></path></g></g></g></g></mask><defs v-gra="od"><linearGradient x1="0" y1="1" x2="0" y2="0" id="e702cc03-d3b8-4657-affa-8908449bfc16"><stop offset="0%" stop-color="#ffecd2"></stop><stop offset="100%" stop-color="#fcb69f"></stop></linearGradient><filter id="42443b3f1de60f6b6fd3b6a9844b4764" filterUnits="userSpaceOnUse"><feColorMatrix type="matrix" values="0 0 0 0 0.99609375  0 0 0 0 0.99609375  0 0 0 0 0.99609375  0 0 0 1 0"></feColorMatrix></filter></defs><defs v-gra="id"><filter id="a18b46e5-9922-42d0-9ab1-3b5c4137765c" filterUnits="userSpaceOnUse"><feColorMatrix type="matrix" values="0 0 0 0 0.99609375  0 0 0 0 0.99609375  0 0 0 0 0.99609375  0 0 0 1 0"></feColorMatrix></filter><linearGradient x1="0" y1="1" x2="0" y2="0" id="FPHWhz6bvvIl2J2g1UvxW"><stop offset="0%" stop-color="#ffecd2"></stop><stop offset="100%" stop-color="#fcb69f"></stop></linearGradient><filter id="42443b3f1de60f6b6fd3b6a9844b4764" filterUnits="userSpaceOnUse"><feColorMatrix type="matrix" values="0 0 0 0 0.99609375  0 0 0 0 0.99609375  0 0 0 0 0.99609375  0 0 0 1 0"></feColorMatrix></filter></defs><mask v-gra="im" id="cc143a79-9173-4ee0-a0e1-8f2845cbbeb7"><g mask="url(#ee1844be-8d09-4273-99d5-7f4242dbdc37)" filter="url(#a18b46e5-9922-42d0-9ab1-3b5c4137765c)"><g><rect fill="#404542" fill-opacity="0" stroke-width="2" x="0" y="0" width="105" height="105" class="image-rect"></rect> <svg x="0" y="0" width="105" height="105" filtersec="colorsf4352754811" class="image-svg-svg primary" style="overflow: visible;"><svg fill="#000000" xmlns="http://www.w3.org/2000/svg" xmlns:xlink="http://www.w3.org/1999/xlink" xml:space="preserve" style="shape-rendering:geometricPrecision;text-rendering:geometricPrecision;image-rendering:optimizeQuality;" viewBox="2.6456985473632812 2.6456899642944336 94.70860290527344 94.70860290527344" x="0px" y="0px" fill-rule="evenodd" clip-rule="evenodd"><defs></defs><g><path class="fil0" d="M50 2.64569c26.1522,0 47.3543,21.2021 47.3543,47.3543 0,26.1522 -21.2021,47.3543 -47.3543,47.3543 -26.1522,0 -47.3543,-21.2021 -47.3543,-47.3543 0,-26.1522 21.2021,-47.3543 47.3543,-47.3543zm0 5.90556c-22.8899,0 -41.4488,18.5588 -41.4488,41.4488 0,22.8899 18.5588,41.4488 41.4488,41.4488 22.8899,0 41.4488,-18.5588 41.4488,-41.4488 0,-22.8899 -18.5588,-41.4488 -41.4488,-41.4488z"></path></g></svg></svg> <defs><filter id="colors8591157915"><feColorMatrix type="matrix" values="0 0 0 0 0.37109375  0 0 0 0 0.4375  0 0 0 0 0.39453125  0 0 0 1 0" class="icon-fecolormatrix"></feColorMatrix></filter> <filter id="colorsf4352754811"><feColorMatrix type="matrix" values="0 0 0 0 0.99609375  0 0 0 0 0.99609375  0 0 0 0 0.99609375  0 0 0 1 0" class="icon-fecolormatrix"></feColorMatrix></filter> <filter id="colorsb6098193119"><feColorMatrix type="matrix" values="0 0 0 0 0  0 0 0 0 0  0 0 0 0 0  0 0 0 1 0" class="icon-fecolormatrix"></feColorMatrix></filter></defs></g></g></mask>
</svg>