<?xml version="1.0" encoding="UTF-8" standalone="no"?>
<!-- Created with Inkscape (http://www.inkscape.org/) -->

<svg
   version="1.1"
   id="svg2"
   width="666.66669"
   height="666.66669"
   viewBox="0 0 666.66669 666.66669"
   sodipodi:docname="empty boxes m.ai"
   xmlns:inkscape="http://www.inkscape.org/namespaces/inkscape"
   xmlns:sodipodi="http://sodipodi.sourceforge.net/DTD/sodipodi-0.dtd"
   xmlns="http://www.w3.org/2000/svg"
   xmlns:svg="http://www.w3.org/2000/svg">
  <defs
     id="defs6">
    <clipPath
       clipPathUnits="userSpaceOnUse"
       id="clipPath16">
      <path
         d="M 0,500 H 500 V 0 H 0 Z"
         id="path14" />
    </clipPath>
    <clipPath
       clipPathUnits="userSpaceOnUse"
       id="clipPath28">
      <path
         d="M 0,500 H 500 V 0 H 0 Z"
         id="path26" />
    </clipPath>
    <clipPath
       clipPathUnits="userSpaceOnUse"
       id="clipPath48">
      <path
         d="M 0,500 H 500 V 0 H 0 Z"
         id="path46" />
    </clipPath>
    <clipPath
       clipPathUnits="userSpaceOnUse"
       id="clipPath128">
      <path
         d="M 0,500 H 500 V 0 H 0 Z"
         id="path126" />
    </clipPath>
    <clipPath
       clipPathUnits="userSpaceOnUse"
       id="clipPath152">
      <path
         d="M 0,500 H 500 V 0 H 0 Z"
         id="path150" />
    </clipPath>
    <clipPath
       clipPathUnits="userSpaceOnUse"
       id="clipPath236">
      <path
         d="m 239.95,281.527 h 4.029 v -16.212 h -4.029 z"
         id="path234" />
    </clipPath>
    <clipPath
       clipPathUnits="userSpaceOnUse"
       id="clipPath252">
      <path
         d="m 320.152,327.82 h 4.029 v -16.212 h -4.029 z"
         id="path250" />
    </clipPath>
    <clipPath
       clipPathUnits="userSpaceOnUse"
       id="clipPath288">
      <path
         d="m 175.811,318.988 h 64.151 v -53.673 h -64.151 z"
         id="path286" />
    </clipPath>
    <clipPath
       clipPathUnits="userSpaceOnUse"
       id="clipPath332">
      <path
         d="m 243.971,320.876 h 76.18 v -62.505 h -76.18 z"
         id="path330" />
    </clipPath>
    <clipPath
       clipPathUnits="userSpaceOnUse"
       id="clipPath348">
      <path
         d="m 243.978,267.637 h 72.167 v -60.193 h -72.167 z"
         id="path346" />
    </clipPath>
    <clipPath
       clipPathUnits="userSpaceOnUse"
       id="clipPath364">
      <path
         d="m 243.979,216.707 h 72.166 v -60.192 h -72.166 z"
         id="path362" />
    </clipPath>
    <clipPath
       clipPathUnits="userSpaceOnUse"
       id="clipPath384">
      <path
         d="M 0,500 H 500 V 0 H 0 Z"
         id="path382" />
    </clipPath>
    <clipPath
       clipPathUnits="userSpaceOnUse"
       id="clipPath392">
      <path
         d="M 48.9579,163.62 H 205.782 V 72.9716 H 48.9579 Z"
         id="path390" />
    </clipPath>
    <clipPath
       clipPathUnits="userSpaceOnUse"
       id="clipPath412">
      <path
         d="M 0,500 H 500 V 0 H 0 Z"
         id="path410" />
    </clipPath>
    <clipPath
       clipPathUnits="userSpaceOnUse"
       id="clipPath420">
      <path
         d="M 48.9579,221.346 H 122.721 V 121.035 H 48.9579 Z"
         id="path418" />
    </clipPath>
    <clipPath
       clipPathUnits="userSpaceOnUse"
       id="clipPath440">
      <path
         d="M 0,500 H 500 V 0 H 0 Z"
         id="path438" />
    </clipPath>
    <clipPath
       clipPathUnits="userSpaceOnUse"
       id="clipPath448">
      <path
         d="M 48.9579,178.761 H 132.02 V 72.9716 H 48.9579 Z"
         id="path446" />
    </clipPath>
    <clipPath
       clipPathUnits="userSpaceOnUse"
       id="clipPath468">
      <path
         d="M 0,500 H 500 V 0 H 0 Z"
         id="path466" />
    </clipPath>
    <clipPath
       clipPathUnits="userSpaceOnUse"
       id="clipPath476">
      <path
         d="m 122.72,221.346 h 83.062 V 115.557 H 122.72 Z"
         id="path474" />
    </clipPath>
    <clipPath
       clipPathUnits="userSpaceOnUse"
       id="clipPath496">
      <path
         d="M 0,500 H 500 V 0 H 0 Z"
         id="path494" />
    </clipPath>
    <clipPath
       clipPathUnits="userSpaceOnUse"
       id="clipPath504">
      <path
         d="m 132.02,173.288 h 73.762 V 72.9716 H 132.02 Z"
         id="path502" />
    </clipPath>
    <clipPath
       clipPathUnits="userSpaceOnUse"
       id="clipPath524">
      <path
         d="M 0,500 H 500 V 0 H 0 Z"
         id="path522" />
    </clipPath>
    <clipPath
       clipPathUnits="userSpaceOnUse"
       id="clipPath532">
      <path
         d="m 122.721,253.306 h 83.061 v -80.018 h -83.061 z"
         id="path530" />
    </clipPath>
    <clipPath
       clipPathUnits="userSpaceOnUse"
       id="clipPath552">
      <path
         d="M 0,500 H 500 V 0 H 0 Z"
         id="path550" />
    </clipPath>
    <clipPath
       clipPathUnits="userSpaceOnUse"
       id="clipPath560">
      <path
         d="m 132.02,200.86 h 80.011 V 130.702 H 132.02 Z"
         id="path558" />
    </clipPath>
    <clipPath
       clipPathUnits="userSpaceOnUse"
       id="clipPath580">
      <path
         d="M 0,500 H 500 V 0 H 0 Z"
         id="path578" />
    </clipPath>
    <clipPath
       clipPathUnits="userSpaceOnUse"
       id="clipPath588">
      <path
         d="M 40.1608,250.345 H 122.721 V 178.761 H 40.1608 Z"
         id="path586" />
    </clipPath>
    <clipPath
       clipPathUnits="userSpaceOnUse"
       id="clipPath608">
      <path
         d="M 0,500 H 500 V 0 H 0 Z"
         id="path606" />
    </clipPath>
    <clipPath
       clipPathUnits="userSpaceOnUse"
       id="clipPath616">
      <path
         d="M 31.6041,202.727 H 132.02 V 130.702 H 31.6041 Z"
         id="path614" />
    </clipPath>
    <clipPath
       clipPathUnits="userSpaceOnUse"
       id="clipPath632">
      <path
         d="m 151.957,103.983 h 7.753 V 90.1414 h -7.753 z"
         id="path630" />
    </clipPath>
    <clipPath
       clipPathUnits="userSpaceOnUse"
       id="clipPath660">
      <path
         d="m 136.877,99.0888 h 12.049 V 83.2475 h -12.049 z"
         id="path658" />
    </clipPath>
    <clipPath
       clipPathUnits="userSpaceOnUse"
       id="clipPath680">
      <path
         d="M 31.6041,202.727 H 132.02 V 130.702 H 31.6041 Z"
         id="path678" />
    </clipPath>
    <clipPath
       clipPathUnits="userSpaceOnUse"
       id="clipPath696">
      <path
         d="m 132.02,173.288 h 73.762 V 72.9716 H 132.02 Z"
         id="path694" />
    </clipPath>
    <clipPath
       clipPathUnits="userSpaceOnUse"
       id="clipPath712">
      <path
         d="M 0,500 H 500 V 0 H 0 Z"
         id="path710" />
    </clipPath>
    <clipPath
       clipPathUnits="userSpaceOnUse"
       id="clipPath728">
      <path
         d="M 57.7859,291.486 H 74.7926 V 274.241 H 57.7859 Z"
         id="path726" />
    </clipPath>
    <clipPath
       clipPathUnits="userSpaceOnUse"
       id="clipPath748">
      <path
         d="M 0,500 H 500 V 0 H 0 Z"
         id="path746" />
    </clipPath>
    <clipPath
       clipPathUnits="userSpaceOnUse"
       id="clipPath776">
      <path
         d="m 401.689,289.988 h 18.846 v -57.44 h -18.846 z"
         id="path774" />
    </clipPath>
  </defs>
  <sodipodi:namedview
     id="namedview4"
     pagecolor="#ffffff"
     bordercolor="#000000"
     borderopacity="0.25"
     inkscape:showpageshadow="2"
     inkscape:pageopacity="0.0"
     inkscape:pagecheckerboard="0"
     inkscape:deskcolor="#d1d1d1" />
  <g
     id="g8"
     inkscape:groupmode="layer"
     inkscape:label="empty boxes m"
     transform="matrix(1.3333333,0,0,-1.3333333,0,666.66667)">
    <g
       id="g10">
      <g
         id="g12"
         clip-path="url(#clipPath16)">
        <g
           id="g18"
           transform="translate(420.1211,254.2974)">
          <path
             d="m 0,0 c 91.889,-53.052 91.888,-139.065 -0.001,-192.118 -91.889,-53.051 -240.869,-53.051 -332.757,0 -91.888,53.052 -91.888,139.065 10e-4,192.117 C -240.868,53.051 -91.888,53.051 0,0"
             style="fill:#f5f5f5;fill-opacity:1;fill-rule:nonzero;stroke:none"
             id="path20" />
        </g>
      </g>
    </g>
    <g
       id="g22">
      <g
         id="g24"
         clip-path="url(#clipPath28)">
        <g
           id="g30"
           transform="translate(456.082,157.4077)">
          <path
             d="m 0,0 c 26.066,-15.05 26.066,-39.45 0,-54.5 -26.067,-15.05 -68.33,-15.05 -94.397,0 -26.067,15.049 -26.067,39.45 0.001,54.5 C -68.33,15.049 -26.067,15.049 0,0"
             style="fill:#e0e0e0;fill-opacity:1;fill-rule:nonzero;stroke:none"
             id="path32" />
        </g>
        <g
           id="g34"
           transform="translate(239.9497,109.3687)">
          <path
             d="M 0,0 -75.297,43.488 10.771,93.178 86.08,49.698 Z"
             style="fill:#e0e0e0;fill-opacity:1;fill-rule:nonzero;stroke:none"
             id="path36" />
        </g>
        <g
           id="g38"
           transform="translate(34.9097,122.8237)">
          <path
             d="m 0,0 97.119,-56.072 81.464,47.016 -97.12,56.072 z"
             style="fill:#e0e0e0;fill-opacity:1;fill-rule:nonzero;stroke:none"
             id="path40" />
        </g>
      </g>
    </g>
    <g
       id="g42">
      <g
         id="g44"
         clip-path="url(#clipPath48)">
        <g
           id="g50"
           transform="translate(178.5171,386.3706)">
          <path
             d="M 0,0 V 5.515 H -0.003 C -0.02,6.04 -0.387,6.572 -1.107,6.985 l -33.32,19.122 c -1.414,0.811 -3.707,0.811 -5.122,0 l -95.786,-54.971 c -0.72,-0.413 -1.087,-0.946 -1.104,-1.47 h -0.005 v -5.515 h 0.005 c 0.017,-0.525 0.384,-1.057 1.104,-1.47 l 33.319,-19.121 c 1.415,-0.812 3.708,-0.812 5.122,0 l 95.787,54.97 c 0.72,0.413 1.087,0.946 1.104,1.47 z"
             style="fill:#f0f0f0;fill-opacity:1;fill-rule:nonzero;stroke:none"
             id="path52" />
        </g>
        <g
           id="g54"
           transform="translate(43.1821,354.5669)">
          <path
             d="m 0,0 33.319,-19.121 c 1.415,-0.812 3.708,-0.812 5.122,0 l 95.787,54.97 c 1.415,0.812 1.415,2.128 0,2.94 l -33.32,19.122 c -1.414,0.811 -3.707,0.811 -5.122,0 L 0,2.94 C -1.415,2.128 -1.415,0.812 0,0"
             style="fill:#fafafa;fill-opacity:1;fill-rule:nonzero;stroke:none"
             id="path56" />
        </g>
        <g
           id="g58"
           transform="translate(79.0586,334.8325)">
          <path
             d="m 0,0 v -5.515 c -0.923,0 -1.846,0.212 -2.555,0.611 l -33.324,19.12 c -0.722,0.411 -1.088,0.952 -1.1,1.47 h -0.012 v 5.515 h 0.012 c 0.007,0.209 0.09,0.42 0.209,0.624 -0.386,-0.711 -0.095,-1.529 0.891,-2.095 L -2.555,0.611 C -1.857,0.2 -0.923,0 0,0"
             style="fill:#e0e0e0;fill-opacity:1;fill-rule:nonzero;stroke:none"
             id="path60" />
        </g>
        <g
           id="g62"
           transform="translate(96.959,381.4702)">
          <path
             d="M 0,0 28.23,-16.094 74.866,10.67 46.639,26.766 Z"
             style="fill:#e0e0e0;fill-opacity:1;fill-rule:nonzero;stroke:none"
             id="path64" />
        </g>
        <g
           id="g66"
           transform="translate(125.5107,366.6001)">
          <path
             d="m 0,0 -27.231,15.627 c 0.71,2.019 0.657,4.375 -0.148,7.062 L -0.321,7.227 C -0.321,7.227 0.196,5.522 0,0"
             style="fill:#ffffff;fill-opacity:1;fill-rule:nonzero;stroke:none"
             id="path68" />
        </g>
        <g
           id="g70"
           transform="translate(123.7998,376.0332)">
          <path
             d="m 0,0 c 1.445,-0.829 2.617,-2.846 2.617,-4.504 v -5.263 c 0,-1.659 -1.172,-2.331 -2.617,-1.502 l -26.838,15.402 -0.003,1.304 26.48,-15.1 c 0.866,-0.498 1.569,-0.094 1.568,0.901 L 1.182,-3.885 C 1.181,-2.89 0.478,-1.68 -0.39,-1.182 l -26.448,15.107 v 1.477 z"
             style="fill:#ebebeb;fill-opacity:1;fill-rule:nonzero;stroke:none"
             id="path72" />
        </g>
        <g
           id="g74"
           transform="translate(96.9619,391.4326)">
          <path
             d="m 0,0 46.637,26.764 26.835,-15.4 c 1.445,-0.829 2.617,-2.847 2.617,-4.505 L 76.09,1.596 C 76.088,0.77 75.798,0.187 75.322,-0.086 L 28.686,-26.851 c 0.476,0.274 0.765,0.856 0.767,1.682 l 0.004,5.267 c 0,1.657 -1.172,3.675 -2.617,4.504 z"
             style="fill:#fafafa;fill-opacity:1;fill-rule:nonzero;stroke:none"
             id="path76" />
        </g>
        <g
           id="g78"
           transform="translate(125.6523,374.0933)">
          <path
             d="M 0,0 C 0.474,-0.815 0.767,-1.734 0.767,-2.563 L 0.763,-7.83 C 0.761,-8.656 0.471,-9.238 -0.005,-9.511 l 46.637,26.764 c 0.476,0.273 0.766,0.856 0.767,1.682 l -10e-4,5.263 c 0,0.829 -0.293,1.748 -0.766,2.563 z"
             style="fill:#f0f0f0;fill-opacity:1;fill-rule:nonzero;stroke:none"
             id="path80" />
        </g>
        <g
           id="g82"
           transform="translate(68.2573,421.5234)">
          <path
             d="m 0,0 -0.264,-3.565 31.517,-16.905 0.711,2.074 z"
             style="fill:#ebebeb;fill-opacity:1;fill-rule:nonzero;stroke:none"
             id="path84" />
        </g>
        <g
           id="g86"
           transform="translate(99.8018,402.3022)">
          <path
             d="m 0,0 -30.529,17.623 -5.31,-3.065 31.131,-18.213 z"
             style="fill:#ffffff;fill-opacity:1;fill-rule:nonzero;stroke:none"
             id="path88" />
        </g>
        <g
           id="g90"
           transform="translate(89.3594,400.5356)">
          <path
             d="m 0,0 -3.018,-35.378 c 0,-0.724 0.505,-1.599 1.128,-1.961 l 17.711,-10.25 c 0.257,-0.148 0.584,-0.235 0.919,-0.262 L 5.734,-3.039 c -0.336,0.026 -0.662,0.109 -0.92,0.257 l -1.276,0.74 z"
             style="fill:#e0e0e0;fill-opacity:1;fill-rule:nonzero;stroke:none"
             id="path92" />
        </g>
        <g
           id="g94"
           transform="translate(96.4395,397.7534)">
          <path
             d="m 0,0 3.156,2.704 2.32,1.987 c 0.236,0.378 0.513,0.66 0.364,0.97 l 10.859,-44.489 0.018,-0.035 c 0.152,-0.314 0.192,-1.012 -0.235,-1.257 l -5.475,-4.687 c -0.371,-0.214 -0.872,-0.3 -1.347,-0.261 L -1.346,-0.257 C -0.872,-0.296 -0.37,-0.209 0,0"
             style="fill:#f0f0f0;fill-opacity:1;fill-rule:nonzero;stroke:none"
             id="path96" />
        </g>
        <g
           id="g98"
           transform="translate(101.916,403.7524)">
          <path
             d="m 0,0 c 0.625,-0.361 0.47,-0.764 0,-1.307 l -5.477,-4.691 c -0.626,-0.36 -1.639,-0.36 -2.264,0 l -4.816,2.781 c -0.625,0.361 -0.735,0.883 -0.246,1.164 0.489,0.282 1.391,0.219 2.016,-0.142 l 3.801,-2.194 c 0.208,-0.12 0.546,-0.12 0.754,0 l 4.003,3.475 c 0.208,0.12 0.208,0.315 0,0.435 l -31.43,18.25 1.506,0.869 z"
             style="fill:#fafafa;fill-opacity:1;fill-rule:nonzero;stroke:none"
             id="path100" />
        </g>
        <g
           id="g102"
           transform="translate(59.1597,419.814)">
          <path
             d="M 0,0 30.032,-17.349 V -74.481 L 0,-57.136 Z"
             style="fill:#ebebeb;fill-opacity:1;fill-rule:nonzero;stroke:none"
             id="path104" />
        </g>
        <g
           id="g106"
           transform="translate(88.2251,401.5166)">
          <path
             d="m 0,0 -29.065,16.68 c -1.498,-1.73 -3.717,-2.939 -6.646,-3.633 L -6.893,-3.562 c 0,0 1.862,0.436 6.893,3.562"
             style="fill:#ffffff;fill-opacity:1;fill-rule:nonzero;stroke:none"
             id="path108" />
        </g>
        <g
           id="g110"
           transform="translate(78.5396,398.0542)">
          <path
             d="m 0,0 c 1.542,-0.885 4.043,-0.885 5.585,0 l 4.894,2.809 c 1.542,0.885 1.542,2.32 0,3.205 L -18.166,22.453 -19.38,21.76 8.793,5.489 C 9.718,4.958 9.718,4.098 8.792,3.567 L 4.244,0.987 C 3.318,0.457 1.817,0.458 0.892,0.989 l -28.163,16.239 -1.374,-0.789 z"
             style="fill:#fafafa;fill-opacity:1;fill-rule:nonzero;stroke:none"
             id="path112" />
        </g>
        <g
           id="g114"
           transform="translate(49.897,414.4946)">
          <path
             d="M 0,0 V -57.133 L 28.642,-73.57 c 1.542,-0.885 4.044,-0.885 5.586,0 l 4.895,2.808 c 0.767,0.442 1.154,1.019 1.154,1.602 v 57.133 c 0,-0.583 -0.387,-1.16 -1.154,-1.602 l -4.895,-2.815 c -1.542,-0.884 -4.044,-0.884 -5.586,0 z"
             style="fill:#ebebeb;fill-opacity:1;fill-rule:nonzero;stroke:none"
             id="path116" />
        </g>
        <g
           id="g118"
           transform="translate(81.332,397.3877)">
          <path
             d="M 0,0 C 1.011,0 2.022,0.221 2.792,0.663 L 7.688,3.478 C 8.455,3.92 8.842,4.497 8.842,5.08 v -57.133 c 0,-0.583 -0.387,-1.16 -1.154,-1.602 L 2.792,-56.463 C 2.022,-56.906 1.011,-57.126 0,-57.127 Z"
             style="fill:#f0f0f0;fill-opacity:1;fill-rule:nonzero;stroke:none"
             id="path120" />
        </g>
      </g>
    </g>
    <g
       id="g122">
      <g
         id="g124"
         clip-path="url(#clipPath128)">
        <g
           id="g130"
           transform="translate(323.0068,190.0439)">
          <path
             d="m 0,0 c -0.682,11.984 -5.988,35.977 1.005,58.114 3.554,11.253 11.717,23.174 23.87,26.534 4.299,1.188 9.615,1.031 11.729,-3.869 0.356,-0.823 0.555,-1.712 0.619,-2.606 C 37.487,74.45 35.795,71.156 33.912,68.114 29.606,61.156 24.137,54.98 19.774,48.059 17.462,44.39 15.479,40.539 13.764,36.568"
             style="fill:none;stroke:#27debf;stroke-width:0.883;stroke-linecap:butt;stroke-linejoin:miter;stroke-miterlimit:10;stroke-dasharray:none;stroke-opacity:1"
             id="path132" />
        </g>
        <g
           id="g134"
           transform="translate(322.7207,182.2124)">
          <path
             d="M 0,0 C 0,-1.437 0.379,-3.238 0.062,-4.61 -0.035,-5.024 -0.12,-5.475 0.058,-5.861 0.235,-6.247 0.793,-6.475 1.1,-6.18 c 0.22,0.213 0.453,1.757 0.594,2.149 0.304,0.836 0.763,1.648 1.156,2.446 0.796,1.616 1.644,3.207 2.544,4.77 1.853,3.222 3.919,6.321 6.18,9.273 4.452,5.812 9.658,11.048 15.468,15.506 6.304,4.838 13.279,8.765 19.442,13.781 1.817,1.478 3.627,3.146 4.407,5.355 1.163,3.297 -0.381,7.15 -3.122,9.322 -2.742,2.172 -6.427,2.858 -9.915,2.6 C 34.516,58.775 30.021,57.338 26.33,55.328 18.81,51.232 13.643,44.887 9.51,37.701 3.993,28.112 0.854,17.193 0,6.185 Z"
             style="fill:none;stroke:#27debf;stroke-width:0.883;stroke-linecap:butt;stroke-linejoin:miter;stroke-miterlimit:10;stroke-dasharray:none;stroke-opacity:1"
             id="path136" />
        </g>
        <g
           id="g138"
           transform="translate(365.6475,235.248)">
          <path
             d="M 0,0 C -14.23,-4.076 -35.323,-20.417 -42.927,-50.754"
             style="fill:none;stroke:#27debf;stroke-width:0.883;stroke-linecap:round;stroke-linejoin:round;stroke-miterlimit:10;stroke-dasharray:none;stroke-opacity:1"
             id="path140" />
        </g>
        <g
           id="g142"
           transform="translate(351.0146,268.2085)">
          <path
             d="M 0,0 C -7.683,-6.114 -26.026,-25.48 -28.34,-56.786"
             style="fill:none;stroke:#27debf;stroke-width:0.883;stroke-linecap:round;stroke-linejoin:round;stroke-miterlimit:10;stroke-dasharray:none;stroke-opacity:1"
             id="path144" />
        </g>
      </g>
    </g>
    <g
       id="g146">
      <g
         id="g148"
         clip-path="url(#clipPath152)">
        <g
           id="g154"
           transform="translate(319.8945,334.9092)">
          <path
             d="m 0,0 -55.603,32.056 c -1.18,0.681 -2.249,0.746 -3.022,0.299 -0.718,-0.414 -3.283,-1.901 -4.004,-2.311 -0.781,-0.443 -1.265,-1.404 -1.265,-2.774 l 10e-4,-152.165 c 0,-2.725 1.914,-6.04 4.275,-7.402 l 55.601,-32.057 c 1.181,-0.681 2.249,-0.746 3.023,-0.299 0.718,0.415 3.301,1.901 4.023,2.322 0.77,0.449 1.245,1.405 1.245,2.763 V -7.403 C 4.274,-4.677 2.361,-1.363 0,0"
             style="fill:#263238;fill-opacity:1;fill-rule:nonzero;stroke:none"
             id="path156" />
        </g>
        <g
           id="g158"
           transform="translate(268.0303,207.394)">
          <path
             d="m 0,0 -4.01,-2.315 10e-4,-12.655 c 0,-0.681 0.478,-1.51 1.069,-1.851 l 1.871,-1.081 c 0.59,-0.341 1.547,-0.341 2.137,0 l 1.872,1.081 c 0.59,0.341 1.249,1.138 1.473,1.782 L 8.02,-4.63 Z"
             style="fill:#263238;fill-opacity:1;fill-rule:nonzero;stroke:none"
             id="path160" />
        </g>
        <g
           id="g162"
           transform="translate(264.0215,192.4238)">
          <path
             d="m 0,0 c 0,-0.681 0.478,-1.51 1.068,-1.851 l 1.871,-1.081 c 0.591,-0.341 1.25,-0.095 1.473,0.549 l 3.607,10.408 -8.02,4.63 z"
             style="fill:#37474f;fill-opacity:1;fill-rule:nonzero;stroke:none"
             id="path164" />
        </g>
        <g
           id="g166"
           transform="translate(308.125,184.2959)">
          <path
             d="m 0,0 -4.01,-2.315 10e-4,-12.655 c 0,-0.682 0.479,-1.51 1.069,-1.851 l 1.872,-1.081 c 0.589,-0.341 1.547,-0.342 2.136,-10e-4 l 1.872,1.081 c 0.591,0.341 1.25,1.139 1.473,1.783 L 8.02,-4.63 Z"
             style="fill:#263238;fill-opacity:1;fill-rule:nonzero;stroke:none"
             id="path168" />
        </g>
        <g
           id="g170"
           transform="translate(304.1162,169.3252)">
          <path
             d="M 0,0 C 0,-0.681 0.479,-1.51 1.068,-1.851 L 2.94,-2.932 c 0.59,-0.34 1.249,-0.095 1.472,0.549 L 8.02,8.025 -0.001,12.656 Z"
             style="fill:#37474f;fill-opacity:1;fill-rule:nonzero;stroke:none"
             id="path172" />
        </g>
        <g
           id="g174"
           transform="translate(260.5605,364.5737)">
          <path
             d="m 0,0 55.604,-32.056 c 2.36,-1.363 4.273,-4.677 4.273,-7.403 v -152.165 c 0,-1.363 -0.479,-2.32 -1.252,-2.767 -0.773,-0.446 -1.842,-0.382 -3.021,0.3 l -55.603,32.056 c -2.36,1.363 -4.273,4.677 -4.273,7.403 L -4.274,-2.468 c 0,1.37 0.484,2.331 1.264,2.775 C -2.237,0.745 -1.174,0.678 0,0"
             style="fill:#37474f;fill-opacity:1;fill-rule:nonzero;stroke:none"
             id="path176" />
        </g>
        <g
           id="g178"
           transform="translate(179.8208,156.521)">
          <path
             d="M 0,0 60.142,-34.723 144.34,13.889 140.331,16.204 80.189,50.927 0,4.63 Z"
             style="fill:#455a64;fill-opacity:1;fill-rule:nonzero;stroke:none"
             id="path180" />
        </g>
        <g
           id="g182"
           transform="translate(239.9629,121.7983)">
          <path
             d="M 0,0 V 4.629 L 84.198,53.241 V 48.612 Z"
             style="fill:#263238;fill-opacity:1;fill-rule:nonzero;stroke:none"
             id="path184" />
        </g>
        <g
           id="g186"
           transform="translate(240.0361,128.7432)">
          <path
             d="m 0,0 c 11.248,17.017 10.623,47.104 9.655,52.181 0,0 4.745,-31.804 10.588,-40.886"
             style="fill:none;stroke:#fafafa;stroke-width:0.74;stroke-linecap:butt;stroke-linejoin:miter;stroke-miterlimit:10;stroke-dasharray:none;stroke-opacity:1"
             id="path188" />
        </g>
        <g
           id="g190"
           transform="translate(251.6943,169.3672)">
          <path
             d="M 0,0 C 1.931,-9.272 23.87,-15.817 23.87,-15.817"
             style="fill:none;stroke:#fafafa;stroke-width:0.74;stroke-linecap:butt;stroke-linejoin:miter;stroke-miterlimit:10;stroke-dasharray:none;stroke-opacity:1"
             id="path192" />
        </g>
        <g
           id="g194"
           transform="translate(249.5327,160.1445)">
          <path
             d="m 0,0 c 0.619,1.505 3.668,1.714 4.249,-0.732 0,0 0.352,4.503 2.89,3.226"
             style="fill:none;stroke:#fafafa;stroke-width:0.74;stroke-linecap:butt;stroke-linejoin:miter;stroke-miterlimit:10;stroke-dasharray:none;stroke-opacity:1"
             id="path196" />
        </g>
        <g
           id="g198"
           transform="translate(248.6631,153.5503)">
          <path
             d="m 0,0 c 1.129,2.42 5.291,3.749 7.118,-1.987 0,0 0.276,10.265 7.066,7.18"
             style="fill:none;stroke:#fafafa;stroke-width:0.74;stroke-linecap:butt;stroke-linejoin:miter;stroke-miterlimit:10;stroke-dasharray:none;stroke-opacity:1"
             id="path200" />
        </g>
        <g
           id="g202"
           transform="translate(246.7305,144.4619)">
          <path
             d="m 0,0 c 2.38,4.581 8.909,6.409 10.587,2.185 0.039,5.216 6.011,11.793 13.3,8.628"
             style="fill:none;stroke:#fafafa;stroke-width:0.74;stroke-linecap:butt;stroke-linejoin:miter;stroke-miterlimit:10;stroke-dasharray:none;stroke-opacity:1"
             id="path204" />
        </g>
        <g
           id="g206"
           transform="translate(242.6973,133.4321)">
          <path
             d="M 0,0 C 2.794,5.077 9.646,14.239 15.622,10.547"
             style="fill:none;stroke:#fafafa;stroke-width:0.74;stroke-linecap:butt;stroke-linejoin:miter;stroke-miterlimit:10;stroke-dasharray:none;stroke-opacity:1"
             id="path208" />
        </g>
        <g
           id="g210"
           transform="translate(316.1416,221.3364)">
          <path
             d="m 0,0 0.003,-4.627 -76.183,-43.985 -60.141,34.724 -0.001,4.629 76.182,43.981 z"
             style="fill:#263238;fill-opacity:1;fill-rule:nonzero;stroke:none"
             id="path212" />
        </g>
        <g
           id="g214"
           transform="translate(316.1416,221.3364)">
          <path
             d="m 0,0 -76.179,-43.981 -60.143,34.722 76.182,43.981 z"
             style="fill:#455a64;fill-opacity:1;fill-rule:nonzero;stroke:none"
             id="path216" />
        </g>
        <g
           id="g218"
           transform="translate(316.1416,272.2646)">
          <path
             d="m 0,0 0.003,-4.628 -76.183,-43.984 -60.141,34.723 -0.001,4.629 76.182,43.982 z"
             style="fill:#263238;fill-opacity:1;fill-rule:nonzero;stroke:none"
             id="path220" />
        </g>
        <g
           id="g222"
           transform="translate(316.1416,272.2646)">
          <path
             d="M 0,0 -76.179,-43.982 -136.322,-9.26 -60.14,34.722 Z"
             style="fill:#455a64;fill-opacity:1;fill-rule:nonzero;stroke:none"
             id="path224" />
        </g>
        <g
           id="g226"
           transform="translate(239.7046,288.666)">
          <path
             d="m 0,0 -55.603,32.056 c -1.18,0.682 -2.249,0.746 -3.022,0.299 -0.718,-0.414 -3.284,-1.901 -4.005,-2.311 -0.781,-0.443 -1.264,-1.404 -1.264,-2.774 l 10e-4,-152.165 c 0,-2.725 1.914,-6.04 4.274,-7.402 l 55.602,-32.057 c 1.18,-0.681 2.249,-0.746 3.022,-0.299 0.719,0.415 3.301,1.901 4.024,2.322 0.769,0.449 1.245,1.404 1.245,2.763 V -7.403 C 4.274,-4.677 2.361,-1.363 0,0"
             style="fill:#263238;fill-opacity:1;fill-rule:nonzero;stroke:none"
             id="path228" />
        </g>
        <g
           id="g230">
          <g
             id="g232" />
          <g
             id="g244">
            <g
               clip-path="url(#clipPath236)"
               opacity="0.199997"
               id="g242">
              <g
                 transform="translate(239.9619,265.3149)"
                 id="g240">
                <path
                   d="M 0,0 4.017,2.315 V 16.212 L -0.012,13.894 Z"
                   style="fill:#000000;fill-opacity:1;fill-rule:nonzero;stroke:none"
                   id="path238" />
              </g>
            </g>
          </g>
        </g>
        <g
           id="g246">
          <g
             id="g248" />
          <g
             id="g260">
            <g
               clip-path="url(#clipPath252)"
               opacity="0.199997"
               id="g258">
              <g
                 transform="translate(320.1641,311.6079)"
                 id="g256">
                <path
                   d="m 0,0 4.018,2.315 v 13.897 l -4.03,-2.318 z"
                   style="fill:#000000;fill-opacity:1;fill-rule:nonzero;stroke:none"
                   id="path254" />
              </g>
            </g>
          </g>
        </g>
        <g
           id="g262"
           transform="translate(187.8394,161.1509)">
          <path
             d="M 0,0 -4.009,-2.315 V -14.97 c 0,-0.681 0.479,-1.51 1.069,-1.851 l 1.872,-1.081 c 0.589,-0.341 1.546,-0.341 2.136,0 l 1.873,1.081 c 0.59,0.341 1.249,1.138 1.473,1.782 L 8.02,-4.63 Z"
             style="fill:#263238;fill-opacity:1;fill-rule:nonzero;stroke:none"
             id="path264" />
        </g>
        <g
           id="g266"
           transform="translate(183.8306,146.1807)">
          <path
             d="M 0,0 C 0,-0.681 0.479,-1.51 1.068,-1.851 L 2.94,-2.932 c 0.59,-0.341 1.249,-0.095 1.473,0.549 l 3.607,10.408 -8.021,4.63 z"
             style="fill:#37474f;fill-opacity:1;fill-rule:nonzero;stroke:none"
             id="path268" />
        </g>
        <g
           id="g270"
           transform="translate(227.9341,138.0527)">
          <path
             d="m 0,0 -4.009,-2.315 0.001,-12.655 c 0,-0.682 0.478,-1.51 1.068,-1.851 l 1.872,-1.081 c 0.59,-0.341 1.547,-0.342 2.137,-10e-4 l 1.872,1.081 c 0.59,0.341 1.249,1.139 1.473,1.783 L 8.021,-4.63 Z"
             style="fill:#263238;fill-opacity:1;fill-rule:nonzero;stroke:none"
             id="path272" />
        </g>
        <g
           id="g274"
           transform="translate(223.9258,123.0825)">
          <path
             d="M 0,0 C 0,-0.682 0.479,-1.51 1.068,-1.851 L 2.94,-2.932 c 0.59,-0.341 1.249,-0.095 1.473,0.548 l 3.606,10.409 -8.02,4.63 z"
             style="fill:#37474f;fill-opacity:1;fill-rule:nonzero;stroke:none"
             id="path276" />
        </g>
        <g
           id="g278"
           transform="translate(180.0845,318.4038)">
          <path
             d="m 0,0 55.603,-32.056 c 2.361,-1.363 4.274,-4.677 4.274,-7.403 v -152.165 c 0,-1.363 10e-4,-4.981 10e-4,-4.981 0,0 -3.094,1.832 -4.275,2.514 l -55.602,32.056 c -2.36,1.363 -4.274,4.677 -4.274,7.403 L -4.274,-2.468 c 0,1.37 0.483,2.331 1.264,2.774 C -2.237,0.745 -1.174,0.678 0,0"
             style="fill:#37474f;fill-opacity:1;fill-rule:nonzero;stroke:none"
             id="path280" />
        </g>
        <g
           id="g282">
          <g
             id="g284" />
          <g
             id="g296">
            <g
               clip-path="url(#clipPath288)"
               opacity="0.199997"
               id="g294">
              <g
                 transform="translate(235.688,286.3477)"
                 id="g292">
                <path
                   d="m 0,0 -55.604,32.056 c -1.173,0.678 -2.237,0.745 -3.009,0.306 -0.781,-0.443 -1.264,-1.404 -1.264,-2.774 V 16.005 L 4.274,-21.033 v 13.63 C 4.274,-4.677 2.36,-1.363 0,0"
                   style="fill:#000000;fill-opacity:1;fill-rule:nonzero;stroke:none"
                   id="path290" />
              </g>
            </g>
          </g>
        </g>
        <g
           id="g298"
           transform="translate(268.0273,293.0972)">
          <path
             d="m 0,0 44.104,25.464 10e-4,-46.297"
             style="fill:none;stroke:#fafafa;stroke-width:0.74;stroke-linecap:round;stroke-linejoin:round;stroke-miterlimit:10;stroke-dasharray:none;stroke-opacity:1"
             id="path300" />
        </g>
        <g
           id="g302"
           transform="translate(304.1133,283.8379)">
          <path
             d="M 0,0 8.019,34.724 -8.02,6.945"
             style="fill:none;stroke:#fafafa;stroke-width:0.74;stroke-linecap:round;stroke-linejoin:round;stroke-miterlimit:10;stroke-dasharray:none;stroke-opacity:1"
             id="path304" />
        </g>
        <g
           id="g306"
           transform="translate(312.1318,318.5615)">
          <path
             d="M 0,0 -24.057,-23.149"
             style="fill:none;stroke:#fafafa;stroke-width:0.74;stroke-linecap:round;stroke-linejoin:round;stroke-miterlimit:10;stroke-dasharray:none;stroke-opacity:1"
             id="path308" />
        </g>
        <g
           id="g310"
           transform="translate(312.1328,279.6509)">
          <path
             d="m 0,0 c 0.01,6.492 -7.404,6.851 -7.404,6.851 0.454,1.966 -0.039,5.124 -2.43,7.167 -2.391,2.043 -4.007,0.921 -4.489,0.085 0,0 0.502,5.966 -4.657,6.544 0,0 3.419,6.31 0,7.306"
             style="fill:none;stroke:#fafafa;stroke-width:0.74;stroke-linecap:round;stroke-linejoin:round;stroke-miterlimit:10;stroke-dasharray:none;stroke-opacity:1"
             id="path312" />
        </g>
        <g
           id="g314"
           transform="translate(312.1318,289.6255)">
          <path
             d="m 0,0 c -0.262,3.321 -2.802,7.545 -5.41,5.509 0,0 0.688,7.247 -4.48,6.296 0,0 2.423,6.722 -2.657,5.057 0,0 3.66,4.628 0.822,5.305"
             style="fill:none;stroke:#fafafa;stroke-width:0.74;stroke-linecap:round;stroke-linejoin:round;stroke-miterlimit:10;stroke-dasharray:none;stroke-opacity:1"
             id="path316" />
        </g>
        <g
           id="g318"
           transform="translate(333.6729,334.7603)">
          <path
             d="m 0,0 c 0.008,0.893 -0.576,1.785 -1.758,2.468 l -59.613,34.417 c -2.36,1.363 -6.188,1.363 -8.548,0 l -91.688,-52.936 c -1.182,-0.682 -1.766,-1.575 -1.759,-2.468 0.007,-0.827 0.007,-3.801 0,-4.629 -0.007,-0.893 0.577,-1.786 1.759,-2.468 l 59.613,-34.417 c 2.361,-1.363 6.188,-1.363 8.548,0 L -1.758,-7.097 C -0.576,-6.415 0.008,-5.522 0,-4.63 -0.007,-3.802 -0.007,-0.828 0,0"
             style="fill:#37474f;fill-opacity:1;fill-rule:nonzero;stroke:none"
             id="path320" />
        </g>
        <g
           id="g322"
           transform="translate(231.6792,279.3569)">
          <path
             d="m 0,0 -59.613,34.417 c -2.361,1.363 -2.361,3.573 0,4.936 l 91.688,52.936 c 2.36,1.362 6.187,1.362 8.548,0 l 59.613,-34.418 c 2.36,-1.363 2.36,-3.573 0,-4.935 L 8.548,0 C 6.187,-1.363 2.36,-1.363 0,0"
             style="fill:#455a64;fill-opacity:1;fill-rule:nonzero;stroke:none"
             id="path324" />
        </g>
        <g
           id="g326">
          <g
             id="g328" />
          <g
             id="g340">
            <g
               clip-path="url(#clipPath332)"
               opacity="0.100006"
               id="g338">
              <g
                 transform="translate(320.1514,320.876)"
                 id="g336">
                <path
                   d="m 0,0 -28.064,-34.723 -48.109,-27.782 -0.007,18.523 z"
                   style="fill:#000000;fill-opacity:1;fill-rule:nonzero;stroke:none"
                   id="path334" />
              </g>
            </g>
          </g>
        </g>
        <g
           id="g342">
          <g
             id="g344" />
          <g
             id="g356">
            <g
               clip-path="url(#clipPath348)"
               opacity="0.100006"
               id="g354">
              <g
                 transform="translate(316.1445,267.6367)"
                 id="g352">
                <path
                   d="m 0,0 -24.058,-32.411 -48.108,-27.781 -0.001,18.526 z"
                   style="fill:#000000;fill-opacity:1;fill-rule:nonzero;stroke:none"
                   id="path350" />
              </g>
            </g>
          </g>
        </g>
        <g
           id="g358">
          <g
             id="g360" />
          <g
             id="g372">
            <g
               clip-path="url(#clipPath364)"
               opacity="0.100006"
               id="g370">
              <g
                 transform="translate(316.1445,216.707)"
                 id="g368">
                <path
                   d="m 0,0 -24.058,-32.41 -48.108,-27.782 v 18.528 z"
                   style="fill:#000000;fill-opacity:1;fill-rule:nonzero;stroke:none"
                   id="path366" />
              </g>
            </g>
          </g>
        </g>
      </g>
    </g>
    <g
       id="g374"
       transform="translate(205.7817,115.5571)">
      <path
         d="m 0,0 -73.762,-42.585 -83.062,48.063 73.762,42.585 z"
         style="fill:#27debf;fill-opacity:1;fill-rule:nonzero;stroke:none"
         id="path376" />
    </g>
    <g
       id="g378">
      <g
         id="g380"
         clip-path="url(#clipPath384)">
        <g
           id="g386">
          <g
             id="g388" />
          <g
             id="g400">
            <g
               clip-path="url(#clipPath392)"
               opacity="0.5"
               id="g398">
              <g
                 transform="translate(205.7817,115.5571)"
                 id="g396">
                <path
                   d="m 0,0 -73.762,-42.585 -83.062,48.063 73.762,42.585 z"
                   style="fill:#000000;fill-opacity:1;fill-rule:nonzero;stroke:none"
                   id="path394" />
              </g>
            </g>
          </g>
        </g>
      </g>
    </g>
    <g
       id="g402"
       transform="translate(122.7212,221.3462)">
      <path
         d="m 0,0 -0.001,-57.726 -73.762,-42.586 0.001,57.727 z"
         style="fill:#27debf;fill-opacity:1;fill-rule:nonzero;stroke:none"
         id="path404" />
    </g>
    <g
       id="g406">
      <g
         id="g408"
         clip-path="url(#clipPath412)">
        <g
           id="g414">
          <g
             id="g416" />
          <g
             id="g428">
            <g
               clip-path="url(#clipPath420)"
               opacity="0.229996"
               id="g426">
              <g
                 transform="translate(122.7212,221.3462)"
                 id="g424">
                <path
                   d="m 0,0 -0.001,-57.726 -73.762,-42.586 0.001,57.727 z"
                   style="fill:#000000;fill-opacity:1;fill-rule:nonzero;stroke:none"
                   id="path422" />
              </g>
            </g>
          </g>
        </g>
      </g>
    </g>
    <g
       id="g430"
       transform="translate(132.02,130.7021)">
      <path
         d="m 0,0 v -57.73 l -83.062,48.063 10e-4,57.726 z"
         style="fill:#27debf;fill-opacity:1;fill-rule:nonzero;stroke:none"
         id="path432" />
    </g>
    <g
       id="g434">
      <g
         id="g436"
         clip-path="url(#clipPath440)">
        <g
           id="g442">
          <g
             id="g444" />
          <g
             id="g456">
            <g
               clip-path="url(#clipPath448)"
               opacity="0.380005"
               id="g454">
              <g
                 transform="translate(132.02,130.7021)"
                 id="g452">
                <path
                   d="m 0,0 v -57.73 l -83.062,48.063 10e-4,57.726 z"
                   style="fill:#000000;fill-opacity:1;fill-rule:nonzero;stroke:none"
                   id="path450" />
              </g>
            </g>
          </g>
        </g>
      </g>
    </g>
    <g
       id="g458"
       transform="translate(205.7817,173.2876)">
      <path
         d="m 0,0 v -57.73 l -83.062,48.063 10e-4,57.726 z"
         style="fill:#27debf;fill-opacity:1;fill-rule:nonzero;stroke:none"
         id="path460" />
    </g>
    <g
       id="g462">
      <g
         id="g464"
         clip-path="url(#clipPath468)">
        <g
           id="g470">
          <g
             id="g472" />
          <g
             id="g484">
            <g
               clip-path="url(#clipPath476)"
               opacity="0.399994"
               id="g482">
              <g
                 transform="translate(205.7817,173.2876)"
                 id="g480">
                <path
                   d="m 0,0 v -57.73 l -83.062,48.063 10e-4,57.726 z"
                   style="fill:#000000;fill-opacity:1;fill-rule:nonzero;stroke:none"
                   id="path478" />
              </g>
            </g>
          </g>
        </g>
      </g>
    </g>
    <g
       id="g486"
       transform="translate(205.7817,115.5571)">
      <path
         d="M 0,0 V 57.73 L -73.762,15.145 v -57.73 z"
         style="fill:#27debf;fill-opacity:1;fill-rule:nonzero;stroke:none"
         id="path488" />
    </g>
    <g
       id="g490">
      <g
         id="g492"
         clip-path="url(#clipPath496)">
        <g
           id="g498">
          <g
             id="g500" />
          <g
             id="g512">
            <g
               clip-path="url(#clipPath504)"
               opacity="0.229996"
               id="g510">
              <g
                 transform="translate(205.7817,115.5571)"
                 id="g508">
                <path
                   d="M 0,0 V 57.73 L -73.762,15.145 v -57.73 z"
                   style="fill:#000000;fill-opacity:1;fill-rule:nonzero;stroke:none"
                   id="path506" />
              </g>
            </g>
          </g>
        </g>
      </g>
    </g>
    <g
       id="g514"
       transform="translate(122.7212,221.3462)">
      <path
         d="M 0,0 0.103,31.96 82.96,-16.161 83.061,-48.059 Z"
         style="fill:#27debf;fill-opacity:1;fill-rule:nonzero;stroke:none"
         id="path516" />
    </g>
    <g
       id="g518">
      <g
         id="g520"
         clip-path="url(#clipPath524)">
        <g
           id="g526">
          <g
             id="g528" />
          <g
             id="g540">
            <g
               clip-path="url(#clipPath532)"
               opacity="0.199997"
               id="g538">
              <g
                 transform="translate(122.7212,221.3462)"
                 id="g536">
                <path
                   d="M 0,0 0.103,31.96 82.96,-16.161 83.061,-48.059 Z"
                   style="fill:#000000;fill-opacity:1;fill-rule:nonzero;stroke:none"
                   id="path534" />
              </g>
            </g>
          </g>
        </g>
      </g>
    </g>
    <g
       id="g542"
       transform="translate(132.02,130.7021)">
      <path
         d="m 0,0 6.917,27.958 73.094,42.2 -6.249,-27.573 z"
         style="fill:#27debf;fill-opacity:1;fill-rule:nonzero;stroke:none"
         id="path544" />
    </g>
    <g
       id="g546">
      <g
         id="g548"
         clip-path="url(#clipPath552)">
        <g
           id="g554">
          <g
             id="g556" />
          <g
             id="g568">
            <g
               clip-path="url(#clipPath560)"
               opacity="0.300003"
               id="g566">
              <g
                 transform="translate(132.02,130.7021)"
                 id="g564">
                <path
                   d="m 0,0 6.917,27.958 73.094,42.2 -6.249,-27.573 z"
                   style="fill:#000000;fill-opacity:1;fill-rule:nonzero;stroke:none"
                   id="path562" />
              </g>
            </g>
          </g>
        </g>
      </g>
    </g>
    <g
       id="g570"
       transform="translate(48.9595,178.7612)">
      <path
         d="m 0,0 -8.799,28.998 73.761,42.585 8.8,-28.998 z"
         style="fill:#27debf;fill-opacity:1;fill-rule:nonzero;stroke:none"
         id="path572" />
    </g>
    <g
       id="g574">
      <g
         id="g576"
         clip-path="url(#clipPath580)">
        <g
           id="g582">
          <g
             id="g584" />
          <g
             id="g596">
            <g
               clip-path="url(#clipPath588)"
               opacity="0.100006"
               id="g594">
              <g
                 transform="translate(48.9595,178.7612)"
                 id="g592">
                <path
                   d="m 0,0 -8.799,28.998 73.761,42.585 8.8,-28.998 z"
                   style="fill:#000000;fill-opacity:1;fill-rule:nonzero;stroke:none"
                   id="path590" />
              </g>
            </g>
          </g>
        </g>
      </g>
    </g>
    <g
       id="g598"
       transform="translate(48.9595,178.7612)">
      <path
         d="M 0,0 -17.355,23.966 65.714,-24.092 83.061,-48.059 Z"
         style="fill:#27debf;fill-opacity:1;fill-rule:nonzero;stroke:none"
         id="path600" />
    </g>
    <g
       id="g602">
      <g
         id="g604"
         clip-path="url(#clipPath608)">
        <g
           id="g610">
          <g
             id="g612" />
          <g
             id="g624">
            <g
               clip-path="url(#clipPath616)"
               opacity="0.449997"
               id="g622">
              <g
                 transform="translate(48.9595,178.7612)"
                 id="g620">
                <path
                   d="M 0,0 -17.355,23.966 65.714,-24.092 83.061,-48.059 Z"
                   style="fill:#000000;fill-opacity:1;fill-rule:nonzero;stroke:none"
                   id="path618" />
              </g>
            </g>
          </g>
        </g>
        <g
           id="g626">
          <g
             id="g628" />
          <g
             id="g652">
            <g
               clip-path="url(#clipPath632)"
               opacity="0.699997"
               id="g650">
              <g
                 transform="translate(153.7378,90.1416)"
                 id="g636">
                <path
                   d="m 0,0 c -0.251,0 -0.454,0.204 -0.454,0.453 v 10.158 c 0,0.25 0.203,0.454 0.454,0.454 0.25,0 0.453,-0.204 0.453,-0.454 V 0.453 C 0.453,0.204 0.25,0 0,0"
                   style="fill:#ffffff;fill-opacity:1;fill-rule:nonzero;stroke:none"
                   id="path634" />
              </g>
              <g
                 transform="translate(152.4102,97.2344)"
                 id="g640">
                <path
                   d="m 0,0 c -0.06,0 -0.121,0.013 -0.18,0.037 -0.23,0.099 -0.335,0.367 -0.236,0.597 l 1.614,3.727 1.8,-2.078 C 3.161,2.093 3.141,1.806 2.951,1.642 2.763,1.482 2.476,1.498 2.312,1.687 L 1.457,2.676 0.417,0.273 C 0.342,0.103 0.176,0 0,0"
                   style="fill:#ffffff;fill-opacity:1;fill-rule:nonzero;stroke:none"
                   id="path638" />
              </g>
              <g
                 transform="translate(157.9297,92.5317)"
                 id="g644">
                <path
                   d="M 0,0 C -0.25,0 -0.453,0.204 -0.453,0.454 V 10.61 c 0,0.25 0.203,0.453 0.453,0.453 0.251,0 0.454,-0.203 0.454,-0.453 V 0.454 C 0.454,0.204 0.251,0 0,0"
                   style="fill:#ffffff;fill-opacity:1;fill-rule:nonzero;stroke:none"
                   id="path642" />
              </g>
              <g
                 transform="translate(156.6035,99.625)"
                 id="g648">
                <path
                   d="m 0,0 c -0.06,0 -0.121,0.012 -0.18,0.037 -0.23,0.1 -0.335,0.367 -0.236,0.597 L 1.197,4.358 2.996,2.283 C 3.16,2.093 3.14,1.806 2.95,1.643 2.76,1.479 2.476,1.5 2.311,1.687 L 1.456,2.676 0.417,0.273 C 0.342,0.103 0.175,0 0,0"
                   style="fill:#ffffff;fill-opacity:1;fill-rule:nonzero;stroke:none"
                   id="path646" />
              </g>
            </g>
          </g>
        </g>
        <g
           id="g654">
          <g
             id="g656" />
          <g
             id="g672">
            <g
               clip-path="url(#clipPath660)"
               opacity="0.699997"
               id="g670">
              <g
                 transform="translate(141.6509,83.2476)"
                 id="g664">
                <path
                   d="M 0,0 C -0.177,0 -0.345,0.042 -0.495,0.127 -0.84,0.324 -1.038,0.721 -1.038,1.216 V 2.46 c 0,0.249 0.203,0.453 0.454,0.453 0.251,0 0.453,-0.204 0.453,-0.453 V 1.216 c 0,-0.185 0.051,-0.281 0.086,-0.3 0.033,-0.025 0.14,-0.015 0.296,0.078 0.4,0.233 0.843,1.131 0.843,2.048 v 5.2 c 0,0.25 0.203,0.454 0.454,0.454 0.25,0 0.453,-0.204 0.453,-0.454 v -5.2 C 2.001,1.859 1.447,0.643 0.711,0.211 0.473,0.071 0.229,0 0,0"
                   style="fill:#ffffff;fill-opacity:1;fill-rule:nonzero;stroke:none"
                   id="path662" />
              </g>
              <g
                 transform="translate(145.3882,98.1816)"
                 id="g668">
                <path
                   d="M 0,0 C -0.683,0 -1.453,-0.237 -2.26,-0.703 -4.977,-2.27 -7.227,-5.923 -7.562,-9.151 L 2.627,-3.269 C 2.574,-1.85 2.082,-0.806 1.227,-0.312 0.865,-0.104 0.452,0 0,0 m -8.511,-10.745 v 0.784 c 0,3.692 2.6,8.199 5.797,10.044 1.635,0.942 3.197,1.083 4.394,0.39 1.198,-0.692 1.858,-2.113 1.858,-4 V -3.79 Z"
                   style="fill:#ffffff;fill-opacity:1;fill-rule:nonzero;stroke:none"
                   id="path666" />
              </g>
            </g>
          </g>
        </g>
        <g
           id="g674">
          <g
             id="g676" />
          <g
             id="g688">
            <g
               clip-path="url(#clipPath680)"
               opacity="0.699997"
               id="g686">
              <g
                 transform="translate(31.604,202.7271)"
                 id="g684">
                <path
                   d="m 0,0 83.069,-48.058 17.347,-23.967 -18.27,23.122 z"
                   style="fill:#ffffff;fill-opacity:1;fill-rule:nonzero;stroke:none"
                   id="path682" />
              </g>
            </g>
          </g>
        </g>
        <g
           id="g690">
          <g
             id="g692" />
          <g
             id="g704">
            <g
               clip-path="url(#clipPath696)"
               opacity="0.699997"
               id="g702">
              <g
                 transform="translate(205.7817,173.2876)"
                 id="g700">
                <path
                   d="m 0,0 -73.762,-42.585 v -57.731 l 1.376,56.57 z"
                   style="fill:#ffffff;fill-opacity:1;fill-rule:nonzero;stroke:none"
                   id="path698" />
              </g>
            </g>
          </g>
        </g>
      </g>
    </g>
    <g
       id="g706">
      <g
         id="g708"
         clip-path="url(#clipPath712)">
        <g
           id="g714"
           transform="translate(97.5371,196.3789)">
          <path
             d="m 0,0 c 7.61,1.101 14.562,5.976 18.974,12.166 2.053,2.881 3.614,6.108 4.5,9.539 0.812,3.148 1.267,6.683 0.463,9.881 -1.375,5.481 -6.455,8.733 -11.827,9.419 -2.708,0.346 -5.511,0.095 -8.095,-0.797 -2.753,-0.952 -5.001,-2.683 -6.697,-5.047 -0.881,-1.228 -1.805,-2.754 -1.846,-4.313 -0.035,-1.357 0.936,-2.328 2.238,-2.549 1.572,-0.268 3.231,0.404 4.576,1.159 1.659,0.933 3.082,2.152 4.268,3.638 2.423,3.036 4.488,6.746 5.543,10.503 0.911,3.246 0.715,6.791 0.02,10.057 -0.71,3.338 -2.094,6.748 -4.537,9.2 -2.556,2.566 -6.209,3.835 -9.733,4.296 -3.575,0.468 -7.334,0.145 -10.746,-1.035 -1.469,-0.508 -2.986,-1.186 -4.126,-2.254 -0.858,-0.804 -1.839,-2.127 -1.488,-3.422 0.389,-1.442 2.248,-1.875 3.537,-1.709 1.883,0.242 3.677,1.413 5.011,2.712 1.468,1.432 2.79,3.181 3.766,4.986 0.721,1.332 1.162,2.813 1.132,4.337 -0.13,6.347 -7.136,10.448 -12.63,11.605 -1.491,0.314 -2.995,0.412 -4.512,0.297 -0.51,-0.039 -0.199,-0.838 0.214,-0.807 2.885,0.218 5.855,-0.649 8.415,-1.926 2.483,-1.24 4.846,-3.073 6.211,-5.534 1.374,-2.477 1.215,-5.326 -0.234,-7.737 -0.991,-1.65 -2.193,-3.325 -3.622,-4.623 -1.191,-1.083 -2.98,-2.329 -4.676,-2.207 -0.497,0.037 -1.129,0.273 -1.318,0.827 -0.223,0.654 0.274,1.415 0.596,1.816 0.81,1.005 2.049,1.612 3.228,2.136 2.93,1.3 6.31,1.723 9.488,1.557 3.274,-0.172 6.681,-1.015 9.343,-3.008 2.5,-1.874 3.971,-4.776 4.86,-7.709 0.919,-3.033 1.305,-6.351 0.876,-9.503 -0.436,-3.209 -1.965,-6.283 -3.626,-9.022 -1.851,-3.053 -4.174,-5.965 -7.653,-7.2 -0.86,-0.305 -2.66,-0.758 -3.004,0.497 -0.339,1.235 0.64,2.783 1.276,3.753 1.443,2.205 3.375,3.911 5.818,4.911 2.29,0.938 4.829,1.289 7.292,1.103 4.71,-0.355 9.492,-2.816 11.132,-7.495 0.961,-2.741 0.765,-5.787 0.253,-8.602 -0.567,-3.11 -1.725,-6.107 -3.31,-8.839 C 15.95,9.199 10.639,4.799 4.461,2.114 2.98,1.47 1.442,0.935 -0.09,0.428 -0.251,0.375 -0.18,-0.026 0,0"
             style="fill:#e0e0e0;fill-opacity:1;fill-rule:nonzero;stroke:none"
             id="path716" />
        </g>
        <g
           id="g718"
           transform="translate(65.7485,283.2007)">
          <path
             d="m 0,0 c -4.053,0.285 -9.511,-2.86 -7.551,-5.162 1.96,-2.301 7.165,1.422 7.165,1.422 0,0 -0.49,-4.651 1.212,-5.177 1.703,-0.525 3.955,3.905 2.297,6.742 0,0 2.557,-1.135 4.972,0.646 2.415,1.78 -0.147,3.455 -3.556,3.157 0,0 2.44,7.975 -2.489,6.468 C -0.386,7.351 -1.261,4.457 0,0"
             style="fill:#27debf;fill-opacity:1;fill-rule:nonzero;stroke:none"
             id="path720" />
        </g>
        <g
           id="g722">
          <g
             id="g724" />
          <g
             id="g736">
            <g
               clip-path="url(#clipPath728)"
               opacity="0.649994"
               id="g734">
              <g
                 transform="translate(65.7485,283.2007)"
                 id="g732">
                <path
                   d="m 0,0 c -4.053,0.285 -9.511,-2.86 -7.551,-5.162 1.96,-2.301 7.165,1.422 7.165,1.422 0,0 -0.49,-4.651 1.212,-5.177 1.703,-0.525 3.955,3.905 2.297,6.742 0,0 2.557,-1.135 4.972,0.646 2.415,1.78 -0.147,3.455 -3.556,3.157 0,0 2.44,7.975 -2.489,6.468 C -0.386,7.351 -1.261,4.457 0,0"
                   style="fill:#ffffff;fill-opacity:1;fill-rule:nonzero;stroke:none"
                   id="path730" />
              </g>
            </g>
          </g>
        </g>
        <g
           id="g738"
           transform="translate(69.4688,281.5015)">
          <path
             d="M 0,0 C -0.217,0.218 -0.456,0.42 -0.699,0.608 -1.05,0.878 -1.415,1.134 -1.772,1.396 -2.113,1.646 -2.473,1.866 -2.844,2.067 -3.059,2.184 -3.278,2.293 -3.502,2.392 -3.849,2.542 -4.148,2.599 -4.527,2.55 -4.88,2.505 -5.193,2.104 -4.93,1.769 c 0.315,-0.4 0.701,-0.477 1.051,-0.657 0.182,-0.094 0.362,-0.194 0.54,-0.298 0.366,-0.215 0.702,-0.466 1.045,-0.717 0.34,-0.251 0.693,-0.486 1.029,-0.743 0.531,-0.405 1.071,-0.809 1.708,-1.036 0.057,-0.02 0.131,-0.01 0.175,0.033 C 1.04,-1.244 0.294,-0.296 0,0"
             style="fill:#455a64;fill-opacity:1;fill-rule:nonzero;stroke:none"
             id="path740" />
        </g>
      </g>
    </g>
    <g
       id="g742">
      <g
         id="g744"
         clip-path="url(#clipPath748)">
        <g
           id="g750"
           transform="translate(388.2852,393.207)">
          <path
             d="m 0,0 c -4.375,-5.876 -10.221,-38.209 -12.432,-48.573 -10.631,0.308 -24.851,0.803 -30.236,1.37 -5.966,0.627 -18.807,1.854 -25.094,1.031 -15.609,-2.043 -14.988,-12.258 -14.626,-14.93 0.416,-3.069 2.606,-4.463 10.958,-2.557 1.872,0.427 3.803,0.636 5.722,0.674 0.816,0.017 2.52,0.405 3.159,-0.286 0.961,-1.037 -1.884,-2.674 -2.605,-3.14 -1.112,-0.717 -2.27,-1.628 -2.505,-2.929 -0.087,-0.484 0.005,-1.058 0.418,-1.325 0.365,-0.234 0.842,-0.149 1.263,-0.049 3.83,0.904 7.539,2.316 10.999,4.186 1.344,0.726 2.663,1.526 4.116,1.995 2.17,0.701 4.404,0.283 6.592,0.283 4.686,0 29.472,-2.453 40.492,-3.575 7.63,-0.777 8.445,6.763 11.074,14.385 3.268,9.48 10.921,59.253 10.921,59.253 C 10.5,6.915 5.197,6.981 0,0"
             style="fill:#ffa8a7;fill-opacity:1;fill-rule:nonzero;stroke:none"
             id="path752" />
        </g>
        <g
           id="g754"
           transform="translate(406.6182,399.7808)">
          <path
             d="m 0,0 c -3.691,0.676 -11.987,1.711 -16.513,-3.337 -4.526,-5.049 -5.592,-10.357 -7.584,-17.995 -1.991,-7.638 -5.486,-21.361 -5.486,-21.361 0,0 5.825,-8.365 24.079,-5.995 z"
             style="fill:#37474f;fill-opacity:1;fill-rule:nonzero;stroke:none"
             id="path756" />
        </g>
        <g
           id="g758"
           transform="translate(452.4482,135.3594)">
          <path
             d="m 0,0 -12.833,-0.013 -3.684,27.859 16.19,0.634 z"
             style="fill:#ffa8a7;fill-opacity:1;fill-rule:nonzero;stroke:none"
             id="path760" />
        </g>
        <g
           id="g762"
           transform="translate(409.8545,149.2661)">
          <path
             d="M 0,0 C -2.189,-3.782 -9.193,-3.475 -15.038,-2.135 L -15.71,25.247 1.45,25.92 Z"
             style="fill:#ffa8a7;fill-opacity:1;fill-rule:nonzero;stroke:none"
             id="path764" />
        </g>
        <g
           id="g766"
           transform="translate(451.5752,311.3379)">
          <path
             d="m 0,0 c 0.465,-11.846 -1.102,-81.918 -1.102,-81.918 0.423,-3.398 3.942,-9.33 4.678,-21.598 1.069,-17.791 -2.565,-55.847 -2.565,-55.847 0,0 -7.348,-3.842 -15.266,-0.901 0,0 -8.064,55.036 -10.978,72.573 -2.543,15.305 -5.807,56.343 -5.807,56.343 l -6.33,-52.605 c 0,0 1.771,-8.318 1.434,-18.888 -0.259,-8.175 -4.918,-47.895 -4.918,-47.895 0,0 -7.821,-2.93 -16.417,-0.396 0,0 -3.827,61.642 -4.263,69.116 -0.498,8.52 -0.157,83.726 -0.157,83.726 z"
             style="fill:#27debf;fill-opacity:1;fill-rule:nonzero;stroke:none"
             id="path768" />
        </g>
        <g
           id="g770">
          <g
             id="g772" />
          <g
             id="g784">
            <g
               clip-path="url(#clipPath776)"
               opacity="0.199997"
               id="g782">
              <g
                 transform="translate(420.5352,279.9897)"
                 id="g780">
                <path
                   d="m 0,0 c 0,0 -11.208,3.175 -18.846,9.999 0,0 3.577,-6.111 13.718,-11.53 l -0.581,-45.911 z"
                   style="fill:#000000;fill-opacity:1;fill-rule:nonzero;stroke:none"
                   id="path778" />
              </g>
            </g>
          </g>
        </g>
        <g
           id="g786"
           transform="translate(424.9541,112.127)">
          <path
             d="m 0,0 c -0.415,-0.421 -0.177,-3.185 0.327,-3.912 0.541,-0.779 3.563,-3.159 8.867,-3.33 5.068,-0.164 9.554,0.695 12.447,2.695 2.892,2 4.248,4.134 4.414,7.024 0.167,2.889 -0.263,5.654 1.023,7.924 1.187,2.096 3.115,4.48 3.512,5.607 0.862,2.451 -0.196,5.865 -0.196,5.865 z"
             style="fill:#263238;fill-opacity:1;fill-rule:nonzero;stroke:none"
             id="path788" />
        </g>
        <g
           id="g790"
           transform="translate(437.8008,137.8022)">
          <path
             d="m 0,0 c 0.008,-1.12 -0.149,-2.147 -0.458,-3.228 -0.645,-2.261 -1.676,-4.406 -2.847,-6.454 -0.602,-1.054 -1.243,-2.091 -1.99,-3.055 -1.458,-1.879 -3.298,-3.447 -4.848,-5.255 -1.549,-1.808 -2.841,-3.978 -2.877,-6.326 -0.059,-3.972 4.295,-5.15 7.63,-5.61 3.562,-0.491 7.329,-0.154 10.743,0.963 3.797,1.241 6.453,4.325 6.939,8.182 0.141,1.108 0.028,2.23 0.115,3.343 0.198,2.538 1.415,4.897 2.811,7.055 0.809,1.253 1.695,2.479 2.217,3.867 0.937,2.495 0.001,5.223 -0.755,7.641 -0.655,2.088 -1.387,4.451 -2.122,4.223 0,-1.106 0.045,-1.207 -0.712,-1.981 C 12.89,2.388 12.901,0.975 11.885,0.105 12.326,1.41 12.336,1.957 12.511,2.953 12.563,3.251 12.46,3.847 12.244,4.065 11.953,4.358 11.472,4.529 11.001,4.668 9.421,5.134 7.791,5.437 6.145,5.574 4.643,5.7 2.917,5.815 1.446,5.424 0.994,5.304 0.559,5.069 0.293,4.695 0.012,4.301 -0.03,3.96 -0.076,3.324 -0.122,2.688 -0.008,1.054 0,0"
             style="fill:#455a64;fill-opacity:1;fill-rule:nonzero;stroke:none"
             id="path792" />
        </g>
        <g
           id="g794"
           transform="translate(433.9951,127.2681)">
          <path
             d="m 0,0 c 1.433,1.164 4.739,1.308 6.555,1.185 2.274,-0.154 4.138,-0.875 5.211,-1.602 0.474,-0.322 1.118,-0.238 1.508,0.179 0.47,0.501 0.394,1.293 -0.177,1.679 C 11.961,2.21 9.919,3.274 7.229,3.358 2.766,3.497 1.49,2.683 1.49,2.683 1.49,2.683 -0.488,1.297 0,0"
             style="fill:#f5f5f5;fill-opacity:1;fill-rule:nonzero;stroke:none"
             id="path796" />
        </g>
        <g
           id="g798"
           transform="translate(430.7598,123.0742)">
          <path
             d="m 0,0 c 1.813,1.169 5.456,1.154 7.272,1.031 2.275,-0.154 4.002,-0.978 5.074,-1.705 0.475,-0.322 1.118,-0.238 1.508,0.179 0.47,0.501 0.395,1.293 -0.177,1.68 C 12.542,1.954 10.368,3.183 7.678,3.267 3.215,3.406 2.091,2.452 2.091,2.452 2.091,2.452 0.243,1.651 0,0"
             style="fill:#f5f5f5;fill-opacity:1;fill-rule:nonzero;stroke:none"
             id="path800" />
        </g>
        <g
           id="g802"
           transform="translate(442.8281,134.9546)">
          <path
             d="m 0,0 c -3.088,0.197 -4.378,-0.198 -5.576,-0.688 -0.767,-0.47 -1.235,-1.729 -0.718,-2.024 0.97,0.589 2.744,0.887 4.933,0.876 1.468,-0.008 3.34,-0.529 4.864,-1.134 0.388,-0.154 0.848,-0.373 1.25,-0.576 0.544,-0.274 1.213,-0.038 1.446,0.513 0.199,0.466 0.017,1.007 -0.434,1.256 C 4.663,-1.168 2.495,-0.159 0,0"
             style="fill:#f5f5f5;fill-opacity:1;fill-rule:nonzero;stroke:none"
             id="path804" />
        </g>
        <g
           id="g806"
           transform="translate(365.5352,132.1948)">
          <path
             d="m 0,0 c -0.461,-0.856 -0.417,-2.504 0.03,-3.568 0.448,-1.065 5.741,-4.391 13.102,-4.245 7.361,0.146 12.54,2.863 15.426,4.583 2.884,1.719 5.813,1.927 9.457,1.962 3.643,0.036 8.5,1.62 9.378,3.282 0.878,1.661 0.099,4.632 0.099,4.632 z"
             style="fill:#263238;fill-opacity:1;fill-rule:nonzero;stroke:none"
             id="path808" />
        </g>
        <g
           id="g810"
           transform="translate(396.2314,153.688)">
          <path
             d="m 0,0 c -0.188,0.051 -0.38,0.1 -0.574,0.148 -0.317,0.079 -0.645,0.158 -0.966,0.098 -0.363,-0.068 -0.671,-0.308 -0.935,-0.568 -0.83,-0.821 -1.357,-1.889 -2.013,-2.854 -1.658,-2.436 -4.985,-4.36 -8.601,-6.088 -2.458,-1.175 -4.853,-2.062 -7.382,-3.058 -2.578,-1.015 -5.962,-1.55 -8,-2.787 -2.971,-1.805 -3.575,-6.662 -0.386,-8.744 2.751,-1.795 10.111,-3.949 18.026,-2.108 4.311,1.003 9.249,5.325 14.853,5.496 3.565,0.11 10.327,0.788 12.741,3.376 0.902,1.155 -0.046,5 -0.818,8.317 -0.841,3.62 -0.457,9.039 -2.072,8.976 L 13.772,-1.605 C 13.622,-2.149 12.346,-2.677 11.952,-3.093 11.471,-3.601 10.99,-4.108 10.509,-4.616 9.88,-5.28 9.228,-5.961 8.392,-6.335 6.954,-6.979 5.288,-6.595 3.764,-6.201 c -0.07,0.018 0.769,2.783 0.853,3.051 0.07,0.219 0.145,0.452 0.084,0.673 -0.059,0.225 -0.246,0.391 -0.43,0.533 C 2.948,-0.919 1.555,-0.413 0,0"
             style="fill:#455a64;fill-opacity:1;fill-rule:nonzero;stroke:none"
             id="path812" />
        </g>
        <g
           id="g814"
           transform="translate(386.5508,146.1973)">
          <path
             d="M 0,0 C 0,0 0.574,1.338 2.705,1.631 4.336,1.855 7.133,0.529 8.837,-1.017 9.535,-1.65 9.387,-2.781 8.541,-3.197 8.038,-3.444 7.441,-3.345 7.036,-2.957 5.922,-1.89 3.401,0.073 0,0"
             style="fill:#f5f5f5;fill-opacity:1;fill-rule:nonzero;stroke:none"
             id="path816" />
        </g>
        <g
           id="g818"
           transform="translate(381.4102,143.6309)">
          <path
             d="m 0,0 c 0,0 1.121,1.583 3.184,1.454 0,0 4.212,-0.322 6.708,-2.881 0.636,-0.652 0.541,-1.707 -0.279,-2.107 C 9.126,-3.772 8.551,-3.676 8.164,-3.296 7.038,-2.189 4.784,0.13 0,0"
             style="fill:#f5f5f5;fill-opacity:1;fill-rule:nonzero;stroke:none"
             id="path820" />
        </g>
        <g
           id="g822"
           transform="translate(375.7607,141.3662)">
          <path
             d="m 0,0 c 0,0 1.233,1.421 3.296,1.292 0,0 3.924,-0.334 6.42,-2.892 0.636,-0.652 0.54,-1.707 -0.279,-2.108 C 8.949,-3.945 8.374,-3.849 7.987,-3.469 6.861,-2.363 4.784,0.129 0,0"
             style="fill:#f5f5f5;fill-opacity:1;fill-rule:nonzero;stroke:none"
             id="path824" />
        </g>
        <g
           id="g826"
           transform="translate(428.0049,399.5591)">
          <path
             d="m 0,0 c 4.723,-0.537 10.307,-0.829 14.813,-1.42 5.81,-0.763 10.345,-6.773 11.759,-16.067 1.56,-10.245 -4.966,-39.604 -4.966,-39.604 l 2.091,-34.617 c -8.516,-6.273 -44.751,-9.564 -62.815,3.479 0,0 0.421,58.921 1.833,67.965 1.943,12.441 4.976,20.175 19.014,21.067 z"
             style="fill:#455a64;fill-opacity:1;fill-rule:nonzero;stroke:none"
             id="path828" />
        </g>
        <g
           id="g830"
           transform="translate(460.2725,324.5562)">
          <path
             d="m 0,0 c -1.531,-2.56 -3.07,-5.116 -4.649,-7.646 -0.585,-0.936 -1.173,-1.872 -1.787,-2.79 -0.219,-0.329 -0.838,-0.99 -1.151,-1.207 -0.758,-0.525 -2.337,-0.193 -3.255,-0.224 -4.517,-0.148 -9.028,-0.477 -13.519,-0.985 -0.745,-0.084 -1.588,-0.232 -1.991,-0.864 -0.46,-0.722 -0.057,-1.739 0.637,-2.239 0.694,-0.5 1.584,-0.616 2.434,-0.718 l 3.902,-0.468 c 0.549,-0.066 1.13,-0.145 1.559,-0.494 1.417,-1.153 -1.289,-2.533 -2.103,-3.094 -1.627,-1.12 -3.366,-2.106 -5.187,-2.874 -8.127,-3.426 -9.119,-5.907 -7.623,-8.722 1.303,-2.451 6.922,-11.363 21.198,-3.691 5.749,3.09 14.506,12.851 18.488,17.57 5.748,6.81 15.454,22.015 15.454,22.015 5.519,7.581 6.236,10.691 6.357,13.849 0.122,3.158 -17.007,27.378 -22.815,35.882 -5.807,8.504 -8.591,18.863 -23.403,20.283 0,0 -5.635,-17.883 3.699,-29.454 L 7.815,14.044 C 7.815,14.044 2.102,3.514 0,0"
             style="fill:#ffa8a7;fill-opacity:1;fill-rule:nonzero;stroke:none"
             id="path832" />
        </g>
        <g
           id="g834"
           transform="translate(475.916,366.2944)">
          <path
             d="m 0,0 c -2.766,4.001 -5.655,8.119 -8.449,12.198 -11.743,17.146 -10.761,20.286 -27.698,20.528 -1.499,-2.305 -2.393,-12.197 -0.133,-22.14 1.898,-8.354 8.969,-14.24 8.969,-14.24 l 8.486,-11.492 c 0,0 5.189,0.159 11.412,4.722 C -1.19,-5.861 0,0 0,0"
             style="fill:#37474f;fill-opacity:1;fill-rule:nonzero;stroke:none"
             id="path836" />
        </g>
        <g
           id="g838"
           transform="translate(439.167,444.6255)">
          <path
             d="m 0,0 c -3.196,4.471 -7.849,3.701 -7.849,3.701 l -0.874,-21.47 -1.417,-7.93 0.251,-8.823 c 0,0 2.391,0.118 3.835,2.914 1.312,2.539 4.962,14.824 4.962,14.824 L -1.107,-16.8 C 2.246,-6.72 1.539,-2.152 0,0"
             style="fill:#263238;fill-opacity:1;fill-rule:nonzero;stroke:none"
             id="path840" />
        </g>
        <g
           id="g842"
           transform="translate(429.4365,426.7598)">
          <path
             d="M 0,0 C 0.419,1.345 0.832,2.103 2.07,3.423 3.302,4.736 8.202,6.173 10.437,2.011 12.713,-2.231 8.906,-7.641 6.008,-9.322 2.291,-11.477 0.113,-8.541 0.113,-8.541 l 0.086,-19.766 c -1.727,-3.976 -9.54,-7.564 -14.181,-6.974 -3.705,0.471 -7.118,3.386 -3.808,7.626 l -0.266,5.633 c 0,0 -4.947,-1.004 -7.397,-0.749 -4.077,0.425 -6.781,3.491 -8.227,7.81 -2.32,6.937 -3.35,12.58 -2.364,26.498 1.081,15.255 18.712,16.288 28.533,10.765 C 2.312,16.78 0,0 0,0"
             style="fill:#ffa8a7;fill-opacity:1;fill-rule:nonzero;stroke:none"
             id="path844" />
        </g>
        <g
           id="g846"
           transform="translate(387.7773,454.1113)">
          <path
             d="m 0,0 c -0.446,3.33 0.706,6.901 4.19,8.08 2.628,0.893 5.326,0.84 7.744,-1.288 0.863,2.346 3.131,4.112 5.619,4.373 2.487,0.262 5.073,-0.994 6.405,-3.11 1.054,1.482 2.295,2.375 4.021,2.795 2.015,0.49 4.509,-0.023 5.939,-1.079 1.429,-1.054 3.094,-3.046 2.672,-5.531 2.812,1.125 5.741,0.193 7.828,-2.295 1.251,-1.492 1.935,-3.424 1.991,-5.363 0.029,-0.944 -0.031,-2.096 -0.422,-2.973 -0.408,-0.914 -1.228,-1.511 -1.463,-2.542 -0.219,-0.968 -0.668,-1.864 -0.535,-2.839 0.23,-1.683 0.601,-3.355 0.821,-5.044 0.212,-1.629 0.403,-3.276 0.413,-4.921 0.004,-0.788 -0.559,-1.344 -1.214,-1.926 -1.069,-0.947 -1.309,-1.441 -2.103,-3.051 -0.354,-0.718 -0.691,-2.495 -1.387,-2.982 -2.129,-1.487 -2.365,3.339 -2.467,4.262 -0.103,0.924 -0.131,3.342 0.045,6.409 -0.684,0.045 -3.495,0.089 -5.671,2.608 -0.711,0.822 -1.264,2.075 -1.408,3.135 -0.093,0.682 -0.197,1.277 -0.166,1.961 -1.385,-2.297 -4.622,-3.239 -6.917,-3.032 -3.865,0.348 -5.189,1.997 -5.811,3.214 -0.284,-1.079 -0.753,-2.459 -1.535,-3.26 -0.987,-1.01 -2.303,-1.621 -3.462,-2.016 -2.154,-0.734 -4.727,0.191 -6.316,1.821 -1.569,-2.252 -5.546,-1.248 -6.429,-0.614 -2.022,1.451 -2.648,3.173 -2.866,5.651 -0.22,2.478 0.777,5.282 3.513,6.255 C 0.511,-2.307 0.157,-1.168 0,0"
             style="fill:#263238;fill-opacity:1;fill-rule:nonzero;stroke:none"
             id="path848" />
        </g>
        <g
           id="g850"
           transform="translate(411.3809,404.7373)">
          <path
             d="m 0,0 c 0,0 8.942,2.268 12.017,4.103 2.057,1.228 3.702,3.261 4.151,4.535 0,0 -0.459,-2.709 -2.228,-5.217 C 11.777,0.354 0.119,-2.403 0.119,-2.403 Z"
             style="fill:#f28f8f;fill-opacity:1;fill-rule:nonzero;stroke:none"
             id="path852" />
        </g>
        <g
           id="g854"
           transform="translate(411.8799,427.418)">
          <path
             d="m 0,0 c 0.055,-1.112 0.967,-1.968 2.036,-1.912 1.07,0.056 1.893,1.003 1.838,2.115 C 3.818,1.314 2.907,2.17 1.837,2.114 0.768,2.058 -0.056,1.111 0,0"
             style="fill:#263238;fill-opacity:1;fill-rule:nonzero;stroke:none"
             id="path856" />
        </g>
        <g
           id="g858"
           transform="translate(408.8867,412.9536)">
          <path
             d="M 0,0 C 0.071,-1.432 1.245,-2.534 2.623,-2.461 4.001,-2.39 5.06,-1.17 4.988,0.261 4.917,1.692 3.743,2.794 2.366,2.722 0.988,2.65 -0.071,1.431 0,0"
             style="fill:#f28f8f;fill-opacity:1;fill-rule:nonzero;stroke:none"
             id="path860" />
        </g>
        <g
           id="g862"
           transform="translate(413.4912,434.0776)">
          <path
             d="M 0,0 4.119,-2.014 C 4.653,-0.833 4.164,0.576 3.026,1.131 1.889,1.688 0.534,1.181 0,0"
             style="fill:#263238;fill-opacity:1;fill-rule:nonzero;stroke:none"
             id="path864" />
        </g>
        <g
           id="g866"
           transform="translate(395.5684,432.353)">
          <path
             d="M 0,0 3.516,2.997 C 2.718,4.007 1.284,4.154 0.313,3.327 -0.657,2.499 -0.799,1.01 0,0"
             style="fill:#263238;fill-opacity:1;fill-rule:nonzero;stroke:none"
             id="path868" />
        </g>
        <g
           id="g870"
           transform="translate(396.6201,427.8081)">
          <path
             d="m 0,0 c 0.054,-1.075 0.936,-1.903 1.971,-1.849 1.035,0.055 1.831,0.97 1.777,2.046 C 3.695,1.272 2.813,2.1 1.778,2.046 0.743,1.992 -0.053,1.076 0,0"
             style="fill:#263238;fill-opacity:1;fill-rule:nonzero;stroke:none"
             id="path872" />
        </g>
        <g
           id="g874"
           transform="translate(405.9014,430.0342)">
          <path
             d="m 0,0 -0.06,-11.834 -6.265,1.795 z"
             style="fill:#f28f8f;fill-opacity:1;fill-rule:nonzero;stroke:none"
             id="path876" />
        </g>
        <g
           id="g878"
           transform="translate(390.1885,413.4805)">
          <path
             d="M 0,0 C 0.113,0.025 0.217,0.093 0.286,0.196 0.428,0.409 0.37,0.698 0.157,0.84 L -5.277,4.461 C -5.491,4.604 -5.779,4.545 -5.922,4.332 -6.063,4.119 -6.006,3.83 -5.793,3.688 L -0.358,0.067 C -0.248,-0.006 -0.119,-0.026 0,0"
             style="fill:#e0e0e0;fill-opacity:1;fill-rule:nonzero;stroke:none"
             id="path880" />
        </g>
        <g
           id="g882"
           transform="translate(389.6055,411.1431)">
          <path
             d="M 0,0 C 0.17,0.038 0.311,0.168 0.353,0.349 0.41,0.599 0.255,0.848 0.005,0.906 L -6.357,2.381 C -6.605,2.44 -6.856,2.284 -6.915,2.034 -6.973,1.784 -6.816,1.535 -6.566,1.476 L -0.205,0.001 C -0.136,-0.015 -0.065,-0.014 0,0"
             style="fill:#e0e0e0;fill-opacity:1;fill-rule:nonzero;stroke:none"
             id="path884" />
        </g>
        <g
           id="g886"
           transform="translate(383.7021,406.9106)">
          <path
             d="M 0,0 C 0.02,0.004 0.04,0.01 0.059,0.017 L 6.191,2.261 C 6.433,2.349 6.557,2.616 6.469,2.857 6.38,3.098 6.095,3.218 5.873,3.133 L -0.26,0.89 C -0.501,0.802 -0.625,0.535 -0.537,0.294 -0.455,0.073 -0.224,-0.05 0,0"
             style="fill:#e0e0e0;fill-opacity:1;fill-rule:nonzero;stroke:none"
             id="path888" />
        </g>
        <g
           id="g890"
           transform="translate(331.8369,358.9424)">
          <path
             d="m 0,0 c 0.161,-0.324 0.441,-0.586 0.806,-0.717 0.752,-0.271 1.582,0.119 1.853,0.869 l 4.568,11.25 C 7.497,12.155 7.106,12.983 6.355,13.254 5.604,13.525 4.773,13.135 4.502,12.385 L -0.065,1.135 C -0.203,0.748 -0.169,0.342 0,0"
             style="fill:#e0e0e0;fill-opacity:1;fill-rule:nonzero;stroke:none"
             id="path892" />
        </g>
        <g
           id="g894"
           transform="translate(324.332,358.9595)">
          <path
             d="m 0,0 c 0.239,-0.483 0.74,-0.812 1.316,-0.804 0.8,0.012 1.438,0.669 1.427,1.469 L 2.599,14.699 C 2.591,15.493 1.93,16.137 1.13,16.125 0.331,16.113 -0.307,15.456 -0.297,14.657 L -0.151,0.623 C -0.148,0.4 -0.094,0.187 0,0"
             style="fill:#e0e0e0;fill-opacity:1;fill-rule:nonzero;stroke:none"
             id="path896" />
        </g>
        <g
           id="g898"
           transform="translate(311.5967,366.7866)">
          <path
             d="m 0,0 c 0.028,-0.058 0.062,-0.115 0.097,-0.167 l 6.888,-10.002 c 0.448,-0.665 1.347,-0.84 2.01,-0.394 0.664,0.449 0.814,1.4 0.392,2.008 L 2.498,1.448 C 2.051,2.113 1.151,2.288 0.488,1.842 -0.12,1.43 -0.317,0.638 0,0"
             style="fill:#e0e0e0;fill-opacity:1;fill-rule:nonzero;stroke:none"
             id="path900" />
        </g>
      </g>
    </g>
  </g>
</svg>
